<svg id="Capa_1" enable-background="new 0 0 512 512" height="512" viewBox="0 0 512 512" width="512" xmlns="http://www.w3.org/2000/svg"><g><path d="m512 449.851-43.411 61.81h-228.039v-123.62h228.039z" fill="#9dc6fb"/><path d="m139.753 287.239c0 55.578 45.214 100.802 100.792 100.802l-123.621 34.614-77.005-34.614c-15.556-30.895-23.787-65.21-23.787-100.802 0-59.946 23.344-116.296 65.725-158.687 42.392-42.391 98.752-65.735 158.687-65.735v61.81 61.81c-55.577 0-100.791 45.224-100.791 100.802z" fill="#ffe07d"/><path d="m464.967 287.239c0 59.946-23.344 116.296-65.735 158.687-42.381 42.392-98.742 65.735-158.687 65.735h-94.837v-61.815-61.806h94.837c55.588 0 100.802-45.224 100.802-100.802s-45.214-100.802-100.802-100.802l-43.401-61.81 43.401-61.81c59.946 0 116.306 23.344 158.687 65.735 42.392 42.392 65.735 98.742 65.735 158.688z" fill="#a2e19f"/><path d="m82.891 388.041c-15.556-30.895-23.787-65.21-23.787-100.802 0-59.946 23.344-116.296 65.725-158.687 32.075-32.075 72.149-53.234 115.716-61.638v-4.097c-59.935 0-116.296 23.344-158.687 65.735-42.381 42.392-65.725 98.742-65.725 158.687 0 35.592 8.231 69.907 23.787 100.802l77.005 34.614 26.478-7.414z" fill="#f1cb86"/><g><path d="m240.545 186.437c55.588 0 100.802 45.225 100.802 100.802s-45.214 100.802-100.802 100.802h42.972c55.588 0 100.802-45.224 100.802-100.802s-45.214-100.802-100.802-100.802z" fill="#97cf92"/></g><path d="m189.119 449.851-43.411 61.81h-126.143c-10.805 0-19.565-8.759-19.565-19.565v-84.49c0-10.805 8.76-19.565 19.565-19.565h126.142z" fill="#e28086"/><path d="m45.06 511.664h-25.487c-10.806 0-19.573-8.757-19.573-19.563v-84.495c0-10.796 8.767-19.563 19.573-19.563h25.487c-10.806 0-19.573 8.767-19.573 19.563v84.495c-.001 10.806 8.766 19.563 19.573 19.563z" fill="#dd636e"/><g><path d="m497.078 128.801-12.079-5.006c.732-6.424.75-12.967.009-19.524l12.07-4.996c12.327-5.106 18.183-19.24 13.077-31.571-3.853-9.302-12.848-14.916-22.333-14.916-3.079 0-6.214.59-9.238 1.844l-12.066 4.996c-4.109-5.157-8.753-9.773-13.814-13.8l5.001-12.075c5.106-12.331-.746-26.465-13.072-31.571-3.024-1.254-6.154-1.844-9.238-1.844-9.481 0-18.481 5.619-22.333 14.921l-5.001 12.079c-6.424-.732-12.972-.75-19.524-.009l-5.001-12.07c-5.106-12.327-19.24-18.183-31.567-13.077-9.302 3.853-14.921 12.853-14.921 22.333 0 3.084.59 6.214 1.844 9.238l5.001 12.066c-5.161 4.113-9.773 8.753-13.8 13.814l-12.079-5.001c-12.327-5.106-26.461.746-31.567 13.073-1.254 3.024-1.844 6.159-1.844 9.238 0 9.485 5.614 18.481 14.921 22.333l12.075 5.001c-.728 6.424-.75 12.972-.009 19.524l-12.066 5.001c-12.331 5.106-18.183 19.24-13.077 31.567 3.853 9.302 12.853 14.921 22.333 14.921 3.079 0 6.209-.59 9.234-1.844l12.07-5.001c.055.069.114.142.174.21.009.009.018.023.023.032 4.058 5.065 8.634 9.595 13.617 13.557l-5.006 12.079c-5.106 12.327.75 26.461 13.077 31.567 3.024 1.254 6.154 1.844 9.238 1.844 3.482 0 6.9-.76 10.021-2.183h.005c5.376-2.443 9.869-6.854 12.304-12.738l5.006-12.075c6.424.727 12.972.75 19.524.009l4.996 12.066c5.106 12.331 19.24 18.183 31.571 13.077 9.302-3.853 14.916-12.848 14.916-22.329 0-3.084-.59-6.214-1.844-9.238l-4.997-12.07c5.157-4.109 9.773-8.753 13.8-13.809l12.075 5.001c12.331 5.106 26.465-.75 31.571-13.077s-.75-26.46-13.077-31.567zm-98.777 25.816c-22.411 0-40.581-18.17-40.581-40.581s18.17-40.581 40.581-40.581 40.581 18.17 40.581 40.581-18.17 40.581-40.581 40.581z" fill="#4a80aa"/><g fill="#407093"><path d="m408.565 27.328c6.552-.741 13.1-.723 19.524.009l5.001-12.08c2.437-5.883 6.934-10.291 12.308-12.738-.253-.115-.505-.232-.764-.339-3.024-1.254-6.154-1.844-9.238-1.844-9.481 0-18.481 5.619-22.333 14.921l-4.747 11.467z"/><path d="m306.475 160.367c-5.106-12.327.746-26.461 13.077-31.567l12.066-5.001c-.741-6.552-.718-13.1.009-19.524l-12.075-5.001c-9.307-3.853-14.921-12.848-14.921-22.333 0-3.079.59-6.214 1.844-9.238 2.441-5.893 6.948-10.301 12.332-12.744l-.792-.328c-12.327-5.106-26.46.746-31.567 13.072-1.254 3.024-1.844 6.159-1.844 9.238 0 9.485 5.614 18.481 14.921 22.333l12.075 5.001c-.727 6.424-.75 12.972-.009 19.524l-12.066 5.001c-12.331 5.106-18.183 19.24-13.077 31.567 3.853 9.302 12.853 14.921 22.333 14.921 3.079 0 6.209-.59 9.233-1.844l.793-.329c-5.385-2.444-9.892-6.855-12.332-12.748z"/><path d="m433.09 212.813-4.996-12.066c-6.552.741-13.1.718-19.524-.009l-.254.613 4.747 11.462c5.106 12.331 19.24 18.183 31.571 13.077.26-.108.516-.221.771-.337-5.378-2.446-9.877-6.852-12.315-12.74z"/><path d="m371.228 225.551c-3.121 1.423-6.539 2.183-10.02 2.183-3.084 0-6.214-.59-9.238-1.844-12.327-5.106-18.183-19.24-13.077-31.567l5.006-12.079c-4.983-3.963-9.558-8.492-13.617-13.557-.005-.009-.014-.023-.023-.032-.055-.078-.114-.146-.174-.211h20.027c4.109 5.161 8.753 9.773 13.814 13.8l-5.006 12.079c-4.997 12.065.512 25.856 12.308 31.228z"/><path d="m371.228 2.524c-3.121-1.423-6.539-2.183-10.02-2.183-3.084 0-6.214.59-9.238 1.844-12.327 5.106-18.183 19.24-13.077 31.567l5.006 12.079c-4.983 3.963-9.558 8.492-13.617 13.557-.005.009-.014.023-.023.032-.055.078-.114.146-.174.211h20.027c4.109-5.161 8.753-9.773 13.814-13.8l-5.006-12.079c-4.997-12.066.512-25.856 12.308-31.228z"/></g></g></g></svg>