<svg clip-rule="evenodd" fill-rule="evenodd" height="512" image-rendering="optimizeQuality" shape-rendering="geometricPrecision" text-rendering="geometricPrecision" viewBox="0 0 512 512" width="512" xmlns="http://www.w3.org/2000/svg"><g id="Layer_x0020_1"><path d="m333.478 511.954h-154.961c-4.4197 0-7.99845-3.57875-7.99845-7.99845v-60.0651c0-4.4197 3.57875-7.99845 7.99845-7.99845l154.956.00118111c4.4197 0 7.99845 3.57875 7.99845 7.99845v60.0651c.00472442 4.4197-3.57875 7.99727-7.99373 7.99727z" fill="#deecf1"/><path d="m355.12 451.89h-198.244c-4.4197 0-7.99845-3.57875-7.99845-7.99845v-90.4385c-53.8206-35.9481-85.8109-95.6082-85.8109-160.476-.00472442-106.383 86.5479-192.93 192.929-192.93 106.386 0 192.937 86.5467 192.937 192.934 0 64.8675-31.9903 124.528-85.8156 160.476v90.4385c.00118111 4.41616-3.57993 7.99491-7.99727 7.99491z" fill="#ffe470"/><g fill="#fdbf00"><path d="m263.994 451.89h-15.9969v-212.903c0-6.05317 3.57875-10.9559 7.99845-10.9559s7.99845 4.90277 7.99845 10.9559z" stroke="#fdbf00" stroke-width=".9"/><path d="m376.004 162.11c-2.51576 0-4.99372-1.18701-6.55278-3.39922-2.53702-3.61655-1.66536-8.60318 1.94882-11.1449l27.8127-19.5426c1.34646-.946066 2.94922-1.45394 4.59923-1.45394l58.3183.00236221c4.4197 0 7.99845 3.57875 7.99845 7.99845s-3.57875 7.99845-7.99845 7.99845h-55.7907l-25.7457 18.0886c-1.39961.981499-3.00237 1.45276-4.58978 1.45276z"/><path d="m462.122 245.785h-58.3195c-1.65001 0-3.24922-.509057-4.59923-1.45394l-27.8127-19.5426c-3.61655-2.53702-4.48702-7.52837-1.94882-11.1449 2.53702-3.6071 7.53546-4.49056 11.1449-1.94646l25.7446 18.0886 55.7907.00118111c4.4197 0 7.99845 3.57875 7.99845 7.99845s-3.57875 7.99963-7.99845 7.99963z"/><path d="m135.991 162.11c-1.58741 0-3.19489-.471261-4.5945-1.45276l-25.7422-18.0886h-55.786c-4.4197 0-7.99845-3.57875-7.99845-7.99845s3.57875-7.99845 7.99845-7.99845h58.3195c1.64528 0 3.25277.507876 4.59923 1.45276l27.8127 19.5426c3.61655 2.53702 4.48702 7.52837 1.94528 11.1449-1.56024 2.21575-4.0382 3.39804-6.55396 3.39804z"/><path d="m108.188 245.787h-58.3195c-4.4197 0-7.99845-3.57875-7.99845-7.99845s3.57875-7.99845 7.99845-7.99845h55.786l25.7422-18.0886c3.61655-2.54056 8.59845-1.67008 11.1437 1.94646 2.54174 3.61655 1.67126 8.60318-1.94528 11.1449l-27.8127 19.5426c-1.34528.944885-2.94922 1.45158-4.5945 1.45158z"/></g><path d="m375.994 278.958h-239.996c-4.4197 0-7.99845-3.57993-7.99845-7.99963v-169.56c0-4.4197 3.57875-7.99845 7.99845-7.99845h239.996c4.4197 0 7.99963 3.57875 7.99963 7.99845v169.56c0 4.41497-3.58229 7.99963-7.99963 7.99963z" fill="#3b566a"/><path d="m175.556 246.558c-1.1126 0-2.24056-.232678-3.31655-.724018-4.0193-1.83308-5.79096-6.57876-3.95316-10.5981l44.5619-97.616c1.3004-2.85001 4.14568-4.67836 7.27798-4.67836 3.13111 0 5.97758 1.82481 7.27679 4.67836l44.5631 97.616c1.8319 4.0193.0625986 8.76499-3.95907 10.5981-4.00749 1.83308-8.76026.0637797-10.5933-3.95316l-37.2852-81.677-37.284 81.677c-1.35355 2.94095-4.25671 4.67718-7.28861 4.67718z" fill="#fefefe"/><path d="m249.067 213.122h-58.2474c-4.4197 0-7.99845-3.57875-7.99845-7.99845s3.57875-7.99963 7.99845-7.99963h58.2474c4.4197 0 7.99963 3.57993 7.99963 7.99963s-3.57993 7.99845-7.99963 7.99845z" fill="#fefefe"/><path d="m318.131 246.554c-4.4197 0-7.99845-3.57875-7.99845-7.99845v-97.616c0-4.4197 3.57875-7.99845 7.99845-7.99845s7.99845 3.57875 7.99845 7.99845v97.616c0 4.4197-3.57875 7.99845-7.99845 7.99845z" fill="#fefefe"/><path d="m336.439 148.937h-36.6107c-4.4197 0-7.99845-3.57875-7.99845-7.99845s3.57875-7.99845 7.99845-7.99845h36.6107c4.4197 0 7.99845 3.57875 7.99845 7.99845s-3.58111 7.99845-7.99845 7.99845z" fill="#fefefe"/><path d="m336.439 246.554h-36.6107c-4.4197 0-7.99845-3.57875-7.99845-7.99845s3.57875-7.99845 7.99845-7.99845h36.6107c4.4197 0 7.99845 3.57875 7.99845 7.99845s-3.58111 7.99845-7.99845 7.99845z" fill="#fefefe"/></g></svg>