<svg id="Icons" height="512" viewBox="0 0 60 60" width="512" xmlns="http://www.w3.org/2000/svg"><path d="m41 55s-5-1-5-6v-1h-12v1c0 5-5 6-5 6v1h22z" fill="#b0ccdd"/><path d="m59 43v4a2.006 2.006 0 0 1 -2 2h-54a2.006 2.006 0 0 1 -2-2v-4l1-1h56z" fill="#e1efff"/><path d="m59 3v40h-58v-40a2.006 2.006 0 0 1 2-2h54a2.006 2.006 0 0 1 2 2z" fill="#3778c6"/><rect fill="#4b95ff" height="50" rx="1" transform="matrix(0 1 -1 0 52 -8)" width="34" x="13" y="-3"/><path d="m19 55h22a3 3 0 0 1 3 3 1 1 0 0 1 -1 1h-26a1 1 0 0 1 -1-1 3 3 0 0 1 3-3z" fill="#e1efff"/><path d="m48 39h-7a11 11 0 0 0 -22 0h-7c0-.51.02-1.03.07-1.54a1.051 1.051 0 0 1 .66-.87l2.9-1.16a14.876 14.876 0 0 1 1.68-4.07l-1.22-2.87a1.032 1.032 0 0 1 .14-1.08c.33-.39.68-.77 1.04-1.14s.75-.71 1.14-1.04a1.032 1.032 0 0 1 1.08-.14l2.87 1.22a14.876 14.876 0 0 1 4.07-1.68l1.16-2.9a1.051 1.051 0 0 1 .87-.66c.51-.05 1.03-.07 1.54-.07s1.03.02 1.54.07a1.051 1.051 0 0 1 .87.66l1.16 2.9a14.876 14.876 0 0 1 4.07 1.68l2.87-1.22a1.032 1.032 0 0 1 1.08.14c.39.33.77.68 1.14 1.04s.71.75 1.04 1.14a1.032 1.032 0 0 1 .14 1.08l-1.22 2.87a14.876 14.876 0 0 1 1.68 4.07l2.9 1.16a1.051 1.051 0 0 1 .66.87c.05.51.07 1.03.07 1.54z" fill="#e1efff"/><g fill="#3778c6"><path d="m21 18a3 3 0 0 1 -3-3v-4a3 3 0 0 1 6 0 1 1 0 0 1 -2 0 1 1 0 0 0 -2 0v4a1 1 0 0 0 2 0 1 1 0 0 1 2 0 3 3 0 0 1 -3 3z"/><path d="m33 18a1 1 0 0 1 -1-1v-6l-.8 1.066a1.544 1.544 0 0 1 -2.4 0l-.8-1.066v6a1 1 0 0 1 -2 0v-7.5a1.5 1.5 0 0 1 2.7-.9l1.3 1.735 1.3-1.735a1.5 1.5 0 0 1 2.7.9v7.5a1 1 0 0 1 -1 1z"/><path d="m39 18a3.01 3.01 0 0 1 -2.6-1.5 1 1 0 0 1 1.731-1 1 1 0 1 0 .869-1.5 3 3 0 1 1 2.6-4.5 1 1 0 0 1 -1.731 1 1 1 0 1 0 -.869 1.5 3 3 0 0 1 0 6z"/><path d="m14 18h-4a1 1 0 0 1 0-2h4a1 1 0 0 1 0 2z"/><path d="m50 18h-4a1 1 0 0 1 0-2h4a1 1 0 0 1 0 2z"/></g><path d="m42 39h-2a10 10 0 0 0 -20 0h-2a12 12 0 0 1 24 0z" fill="#bfdbf0"/></svg>