<svg id="Layer_1" enable-background="new 0 0 512 512" viewBox="0 0 512 512" xmlns="http://www.w3.org/2000/svg"><g clip-rule="evenodd" fill-rule="evenodd"><path d="m428.575 105.51h-162.462v108.309h87.417l47.969 47.968v-47.968h27.076z" fill="#54c4cc"/><path d="m387.96 168.841c5.055 0 9.177-4.122 9.177-9.177 0-5.054-4.122-9.177-9.177-9.177-5.054 0-9.177 4.122-9.177 9.177s4.123 9.177 9.177 9.177z" fill="#d8ecfe"/><circle cx="347.345" cy="159.664" fill="#d8ecfe" r="9.177"/><g><ellipse cx="393.026" cy="330.257" fill="#eac0ac" rx="41.81" ry="41.811" transform="matrix(.139 -.99 .99 .139 11.448 673.677)"/><path d="m393.026 402.09c48.392 0 88.193 36.78 92.974 83.91h-185.948c4.782-47.131 44.582-83.91 92.974-83.91z" fill="#d8ecfe"/></g><path d="m249.347 234.257-102.311 27.414 21.937-37.996c-23.476-13.554-41.781-36.063-49.351-64.315-15.141-56.506 18.393-114.585 74.897-129.725 56.506-15.141 114.585 18.391 129.726 74.896 15.14 56.505-18.392 114.586-74.898 129.726z" fill="#d8ecfe"/><path d="m240.225 81.678c5.926 2.154 11.364 5.326 16.104 9.303l23.647-8.41 13.594 23.914-18.907 16.135c1.095 6.166 1.103 12.523.027 18.692l19.04 16.22-13.913 23.73-23.32-8.293c-4.78 4.044-10.277 7.267-16.275 9.446l-4.505 24.492-27.507-.184-4.492-24.29c-6.007-2.175-11.514-5.398-16.301-9.443l-23.524 8.364-13.594-23.914 18.904-16.102c-1.078-6.169-1.073-12.525.018-18.692l-19.082-16.253 13.913-23.73 23.492 8.329c4.744-3.984 10.188-7.161 16.122-9.317l4.544-24.692 27.507.185zm-18.292 23.832c-14.6 0-26.436 11.836-26.436 26.436s11.836 26.436 26.436 26.436 26.436-11.836 26.436-26.436-11.835-26.436-26.436-26.436z" fill="#e6a025"/><g><ellipse cx="118.974" cy="330.257" fill="#eac0ac" rx="41.81" ry="41.811" transform="matrix(.138 -.99 .99 .138 -224.564 402.41)"/><path d="m118.974 402.09c48.393 0 88.193 36.78 92.974 83.91h-185.948c4.782-47.131 44.582-83.91 92.974-83.91z" fill="#54c4cc"/></g></g></svg>