<svg viewBox="0 0 96 96" xmlns="http://www.w3.org/2000/svg"><g id="Ecommerce"><path d="m89.71 25.37v51.1a4.67 4.67 0 0 1 -4.71 4.66h-74a4.67 4.67 0 0 1 -4.67-4.66v-51.1z" fill="#bdc9ff"/><path d="m81.53 50.33v23.4a4.67 4.67 0 0 1 -4.67 4.67h-57.72a4.67 4.67 0 0 1 -4.67-4.67v-23.4a1.89 1.89 0 0 1 3-1.56 6.72 6.72 0 0 0 8.94-1.38 1.9 1.9 0 0 1 3 0 6.72 6.72 0 0 0 10.45 0 1.9 1.9 0 0 1 3 0 6.72 6.72 0 0 0 10.46 0 1.9 1.9 0 0 1 3 0 6.71 6.71 0 0 0 10.45 0 1.9 1.9 0 0 1 3 0 6.72 6.72 0 0 0 8.94 1.38 1.89 1.89 0 0 1 2.82 1.56z" fill="#dbecff"/><path d="m89.71 25.37v-6.37a4.14 4.14 0 0 0 -4.14-4.14h-75.14a4.14 4.14 0 0 0 -4.14 4.14v6.36z" fill="#617ce6"/><path d="m81.53 25.37v-6.37c0-2.29-1.49-4.14-3.33-4.14h-60.4c-1.84 0-3.33 1.85-3.33 4.14v6.36z" fill="#619fff"/><path d="m69 25.37v-5.83a4.67 4.67 0 0 0 -4.67-4.67h-32.64a4.67 4.67 0 0 0 -4.69 4.67v5.83z" fill="#75c2ff"/><path d="m76.77 21h-.36a.89.89 0 0 1 0-1.78h.36a.89.89 0 1 1 0 1.78z" fill="#5955a1"/><path d="m80.64 21h-.36a.89.89 0 0 1 0-1.78h.36a.89.89 0 1 1 0 1.78z" fill="#5955a1"/><path d="m84.51 21h-.36a.89.89 0 0 1 0-1.78h.36a.89.89 0 1 1 0 1.78z" fill="#5955a1"/><path d="m33.91 21h-22.19a.89.89 0 0 1 0-1.78h22.19a.89.89 0 0 1 0 1.78z" fill="#5955a1"/><path d="m95.02 37.8h-94.04l5.34-12.41h83.36z" fill="#ff575a"/><path d="m81.58 37.8h-67.16l3.81-12.41h59.54z" fill="#dbecff"/><path d="m70.78 33.58h-45.56a2 2 0 0 1 0-4h45.56a2 2 0 0 1 0 4z" fill="#fff"/><path d="m68.15 37.8h-40.3c1.89-10.21.56-3.08 2.29-12.41h35.72c1.71 9.21.36 1.97 2.29 12.41z" fill="#ff575a"/><path d="m67.37 33.58h-38.74l.73-3.98h37.28z" fill="#ff98a5"/><path d="m54.72 37.8h-13.44c.62-10 .11-1.64.77-12.41h11.95c.57 10 .13 2.79.72 12.41z" fill="#dbecff"/><path d="m54.46 33.58h-12.92l.25-3.98h12.42z" fill="#fff"/><path d="m7.7 46.37a6.71 6.71 0 0 1 -6.7-6.71v-1.86h13.42v1.86a6.71 6.71 0 0 1 -6.72 6.71z" fill="#e13e5a"/><path d="m21.13 46.37a6.71 6.71 0 0 1 -6.71-6.71v-1.86h13.43v1.86a6.71 6.71 0 0 1 -6.72 6.71z" fill="#c7ddff"/><path d="m34.57 46.37a6.71 6.71 0 0 1 -6.72-6.71v-1.86h13.43v1.86a6.7 6.7 0 0 1 -6.71 6.71z" fill="#e13e5a"/><path d="m48 46.37a6.71 6.71 0 0 1 -6.72-6.71v-1.86h13.44v1.86a6.71 6.71 0 0 1 -6.72 6.71z" fill="#c7ddff"/><path d="m61.43 46.37a6.71 6.71 0 0 1 -6.71-6.71v-1.86h13.43v1.86a6.71 6.71 0 0 1 -6.72 6.71z" fill="#e13e5a"/><path d="m74.87 46.37a6.71 6.71 0 0 1 -6.72-6.71v-1.86h13.43v1.86a6.7 6.7 0 0 1 -6.71 6.71z" fill="#c7ddff"/><path d="m88.3 46.37a6.71 6.71 0 0 1 -6.72-6.71v-1.86h13.42v1.86a6.71 6.71 0 0 1 -6.7 6.71z" fill="#e13e5a"/><g fill="#5955a1"><path d="m72.08 68.21h-17.19a.88.88 0 0 1 -.87-.69l-2.69-11.85a.88.88 0 0 1 .86-1.09h22.59a.89.89 0 0 1 .86 1.09l-2.7 11.85a.88.88 0 0 1 -.86.69zm-16.49-1.77h15.78l2.29-10.08h-20.36z"/><path d="m66.75 68.21h-6.53a.88.88 0 0 1 -.88-.81l-1-11.85a.9.9 0 0 1 .89-1h8.57a.89.89 0 0 1 .88 1l-1 11.85a.88.88 0 0 1 -.93.81zm-5.75-1.77h4.9l.87-10.08h-6.61z"/><path d="m71.88 72h-14.2a3.31 3.31 0 0 1 -3.24-2.59l-4-17.4a.37.37 0 0 0 -.37-.3h-3.31a.89.89 0 1 1 0-1.77h3.35a2.14 2.14 0 0 1 2.1 1.68l4 17.39a1.53 1.53 0 0 0 1.51 1.21h14.2a.89.89 0 0 1 0 1.78z"/><path d="m72.93 64.49h-18.93a.89.89 0 1 1 0-1.77h18.93a.89.89 0 0 1 0 1.77z"/><path d="m73.93 60.08h-20.93a.89.89 0 0 1 0-1.78h20.9a.89.89 0 0 1 0 1.78z"/><path d="m59.32 76.23a3 3 0 1 1 3-3 3 3 0 0 1 -3 3zm0-4.28a1.26 1.26 0 0 0 0 2.51 1.26 1.26 0 1 0 0-2.51z"/><path d="m68.38 76.23a3 3 0 1 1 3-3 3 3 0 0 1 -3 3zm0-4.28a1.26 1.26 0 1 0 1.25 1.25 1.25 1.25 0 0 0 -1.25-1.2z"/></g><rect fill="#ffab57" height="12.83" rx="2.1" width="21.23" x="21.22" y="50.77"/><rect fill="#ffce57" height="13.23" rx=".71" transform="matrix(0 -1 1 0 -25.35 89.03)" width="4.83" x="29.43" y="50.57"/><path d="m25.18 68.5h-4a.89.89 0 0 1 0-1.78h4a.89.89 0 0 1 0 1.78z" fill="#5955a1"/><path d="m42.46 72.34h-21.24a.89.89 0 0 1 0-1.78h21.24a.89.89 0 0 1 0 1.78z" fill="#5955a1"/><path d="m30.46 76.18h-9.24a.89.89 0 0 1 0-1.78h9.24a.89.89 0 0 1 0 1.78z" fill="#5955a1"/><path d="m42.46 68.5h-12.8a.89.89 0 0 1 0-1.78h12.8a.89.89 0 0 1 0 1.78z" fill="#5955a1"/><rect fill="#619fff" height="4.65" rx="1.19" width="13.43" x="41.28" y="18.22"/></g></svg>