<svg id="Layer_1" enable-background="new 0 0 66 66" viewBox="0 0 66 66" xmlns="http://www.w3.org/2000/svg"><g><path d="m64.45 15.61v-3.37c0-.27-.19-.49-.45-.54l-1.09-.2c-.21-.04-.37-.19-.43-.39-.27-.91-.65-1.77-1.14-2.57-.12-.19-.11-.42.01-.6l.59-.85c.15-.22.13-.51-.06-.7l-2.38-2.37c-.19-.19-.48-.21-.7-.06l-1.02.71c-.17.12-.39.13-.57.03-.66-.35-1.36-.62-2.09-.83-.2-.06-.36-.22-.4-.43l-.26-1.44c-.05-.26-.27-.45-.54-.45h-3.37c-.27 0-.49.19-.54.45l-.26 1.45c-.04.21-.19.37-.4.43-.79.21-1.55.53-2.25.92-.18.1-.41.09-.58-.03l-1.33-.93c-.22-.15-.51-.13-.7.06l-2.39 2.39c-.19.19-.21.48-.06.7l.89 1.28c.12.18.13.4.02.59-.39.68-.71 1.4-.94 2.17-.06.2-.22.35-.42.38l-1.65.3c-.26.05-.45.27-.45.54v3.37c0 .27.19.49.45.54l1.5.27c.21.04.38.2.43.41.2.79.49 1.55.86 2.26.09.18.08.4-.03.57l-.92 1.32c-.15.22-.13.51.06.7l2.38 2.38c.19.19.48.21.7.06l1.14-.79c.18-.12.41-.13.6-.01.84.51 1.76.91 2.74 1.18.21.06.36.22.4.43l.2 1.14c.05.26.27.45.54.45h3.37c.27 0 .49-.19.54-.45l.2-1.14c.04-.21.19-.37.4-.43.91-.25 1.77-.62 2.57-1.08.19-.11.42-.11.59.02l.83.58c.22.15.51.13.7-.06l2.38-2.38c.19-.19.21-.48.06-.7l-.61-.88c-.12-.17-.13-.4-.02-.58.47-.83.83-1.72 1.06-2.66.05-.21.22-.37.43-.41l.96-.21c.26-.04.45-.27.45-.54z" fill="#ed7370"/><path d="m20.16 39.52c-.63-.6-1.2-1.26-1.74-1.94-.81 1.61-2.46 2.72-4.39 2.72-2.73 0-4.94-2.21-4.94-4.94s2.21-4.94 4.94-4.94c.31 0 .6.04.89.09-.37-1.47-.59-2.99-.59-4.57 0-1.05.11-2.07.28-3.07h-2c-.27 0-.49.19-.54.45l-.26 1.45c-.04.21-.19.37-.4.43-.79.22-1.55.53-2.26.92-.18.1-.41.09-.58-.03l-1.33-.93c-.22-.15-.51-.13-.7.06l-2.38 2.38c-.19.19-.21.48-.06.7l.89 1.28c.12.18.13.4.02.59-.39.68-.71 1.4-.94 2.17-.06.2-.22.35-.42.38l-1.65.32c-.26.05-.45.27-.45.54v3.37c0 .27.19.49.45.54l1.5.27c.21.04.38.2.43.41.2.79.49 1.55.86 2.26.09.18.08.4-.03.57l-.92 1.32c-.15.22-.13.51.06.7l2.38 2.38c.19.19.48.21.7.06l1.14-.79c.18-.12.41-.13.6-.01.84.51 1.76.91 2.74 1.18.21.06.36.22.4.43l.2 1.14c.05.26.27.45.54.45h3.37c.27 0 .49-.19.54-.45l.2-1.14c.04-.21.19-.37.4-.43.91-.25 1.77-.62 2.57-1.08.19-.11.42-.11.59.02l.83.58c.22.15.51.13.7-.06l1.66-1.67c-.9-1.5-2.01-2.88-3.3-4.11z" fill="#544d80"/><path d="m50.55 26.52c-.27 0-.49-.19-.54-.45l-.2-1.14c-.04-.21-.19-.37-.4-.43-.97-.27-1.89-.66-2.74-1.18-.19-.11-.42-.11-.6.01l-1.14.79c-.22.15-.51.13-.7-.06l-2.38-2.38c-.19-.19-.21-.48-.06-.7l.92-1.32c.12-.17.13-.38.03-.57-.37-.71-.66-1.47-.86-2.26-.05-.21-.22-.37-.43-.41l-1.5-.27c-.26-.05-.45-.27-.45-.54v-3.37c0-.27.19-.49.45-.54l1.65-.3c.2-.04.36-.19.42-.38.13-.42.29-.83.47-1.24-2.49-1.45-5.34-2.37-8.36-2.53-10.82-.6-19.79 8-19.79 18.7 0 5.34 2.23 10.16 5.82 13.57 3.57 3.39 5.83 7.9 6.2 12.75h13.42c.35-4.8 2.5-9.31 6.05-12.61 3.54-3.3 5.8-7.96 5.96-13.14z" fill="#fac372"/><g><path d="m41.13 56.43h-15.95c-1.11 0-2.01-.9-2.01-2.01v-.15c0-1.11.9-2.01 2.01-2.01h15.95c1.11 0 2.01.9 2.01 2.01v.15c0 1.11-.9 2.01-2.01 2.01z" fill="#7793c2"/><path d="m39.27 60.59h-12.23c-1.15 0-2.08-.93-2.08-2.08 0-1.15.93-2.08 2.08-2.08h12.23c1.15 0 2.08.93 2.08 2.08 0 1.15-.93 2.08-2.08 2.08z" fill="#544d80"/><circle cx="51.97" cy="14.03" fill="#fff" r="4.94"/><g><g><path d="m31.29 32.09c-.1 0-.2-.01-.29-.05-.52-.16-.81-.71-.64-1.23l2.93-9.38c.16-.52.71-.81 1.23-.64.52.16.81.71.64 1.23l-2.93 9.38c-.13.42-.52.69-.94.69z" fill="#544d80"/></g></g><g><g><path d="m38.12 30.14c-.22 0-.45-.08-.63-.23-.42-.35-.47-.97-.12-1.38l1.77-2.11-1.77-2.11c-.35-.42-.3-1.04.12-1.38.42-.35 1.04-.3 1.38.12l2.3 2.74c.31.36.31.9 0 1.26l-2.3 2.74c-.19.23-.47.35-.75.35z" fill="#544d80"/></g></g><g><g><path d="m27.39 30.14c-.28 0-.56-.12-.75-.35l-2.3-2.74c-.31-.36-.31-.9 0-1.26l2.3-2.74c.35-.42.97-.47 1.38-.12.42.35.47.97.12 1.38l-1.77 2.11 1.77 2.11c.35.42.3 1.04-.12 1.38-.18.15-.4.23-.63.23z" fill="#544d80"/></g></g><path d="m33.07 64.45c2.13 0 3.86-1.73 3.86-3.86h-7.73c0 2.13 1.73 3.86 3.87 3.86z" fill="#7793c2"/></g></g></svg>