<svg id="Capa_1" enable-background="new 0 0 504.101 504.101" height="512" viewBox="0 0 504.101 504.101" width="512" xmlns="http://www.w3.org/2000/svg"><path d="m294.788 468.641-3.908-16.795h-72.98l-1.814 16.795c0 19.584 15.876 35.46 35.46 35.46h7.782c19.584 0 35.46-15.876 35.46-35.46z" fill="#c9bfc8"/><g><path d="m354.568 44.927c-4.143 0-7.5-3.358-7.5-7.5v-29.927c0-4.142 3.357-7.5 7.5-7.5s7.5 3.358 7.5 7.5v29.927c0 4.142-3.357 7.5-7.5 7.5z" fill="#e5e1e5"/></g><g><path d="m390.324 48.927c-4.143 0-7.5-3.358-7.5-7.5v-33.927c0-4.142 3.357-7.5 7.5-7.5s7.5 3.358 7.5 7.5v33.927c0 4.142-3.358 7.5-7.5 7.5z" fill="#e5e1e5"/></g><g><path d="m426.079 43.927c-4.143 0-7.5-3.358-7.5-7.5v-28.927c0-4.142 3.357-7.5 7.5-7.5s7.5 3.358 7.5 7.5v28.927c0 4.142-3.358 7.5-7.5 7.5z" fill="#e5e1e5"/></g><g><path d="m466.67 91.346h-28.928c-4.143 0-7.5-3.358-7.5-7.5s3.357-7.5 7.5-7.5h28.928c4.143 0 7.5 3.358 7.5 7.5s-3.358 7.5-7.5 7.5z" fill="#e5e1e5"/></g><g><path d="m466.67 127.101h-30.928c-4.143 0-7.5-3.358-7.5-7.5s3.357-7.5 7.5-7.5h30.928c4.143 0 7.5 3.358 7.5 7.5s-3.358 7.5-7.5 7.5z" fill="#e5e1e5"/></g><g><path d="m466.67 55.59h-31.928c-4.143 0-7.5-3.358-7.5-7.5s3.357-7.5 7.5-7.5h31.928c4.143 0 7.5 3.358 7.5 7.5s-3.358 7.5-7.5 7.5z" fill="#e5e1e5"/></g><path d="m255.437 47.908c-87.45 0-158.51 70.12-160.05 157.19 0 .33-.01.65-.01.98-.01.64-.02 1.27-.02 1.91v.22.28c0 45.18 18.72 85.99 48.83 115.09 22.24 21.51 39.75 47.35 50.78 76.1l13.974 46.762h91.128l15.819-46.762c10.77-28.35 27.62-54.1 49.7-75.04 30.75-29.17 49.93-70.42 49.93-116.15 0-.08 0-.15 0-.23 0-.09 0-.18 0-.27-.001-88.41-71.671-160.08-160.081-160.08z" fill="#a8d3d8"/><path d="m273.349 444.527-13.974-46.762c-11.03-28.75-28.54-54.59-50.78-76.1-30.11-29.1-48.83-69.91-48.83-115.09 0-.09 0-.19 0-.28 0-.07 0-.14 0-.22 0-.64.01-1.27.02-1.91 0-.33.01-.65.01-.98 1.316-74.431 53.439-136.467 123.17-152.911-8.944-1.55-18.141-2.366-27.528-2.366-87.45 0-158.51 70.12-160.05 157.19 0 .33-.01.65-.01.98-.01.64-.02 1.27-.02 1.91v.22.28c0 45.18 18.72 85.99 48.83 115.09 22.24 21.51 39.75 47.35 50.78 76.1l13.974 46.762h91.128l.647-1.913z" fill="#8ebac5"/><path d="m253.139 468.641 1.814-16.795h-37.053l-1.814 16.795c0 19.584 15.876 35.46 35.46 35.46h7.782c5.22 0 10.172-1.137 14.635-3.163-12.279-5.574-20.824-17.934-20.824-32.297z" fill="#baafb9"/><path d="m308.909 429.181h-106.944v25.163c0 7.896 6.401 14.297 14.297 14.297h78.35c7.896 0 14.297-6.401 14.297-14.297z" fill="#d7d0d6"/><g><path d="m223.409 429.144c-4.142 0-7.5-3.358-7.5-7.5v-150.236c0-4.142 3.358-7.5 7.5-7.5s7.5 3.358 7.5 7.5v150.236c0 4.142-3.358 7.5-7.5 7.5z" fill="#eef5f6"/></g><path d="m223.409 429.144c4.142 0 7.5-3.358 7.5-7.5v-74.83c-4.67-6.156-9.679-12.07-15-17.721v92.55c0 4.143 3.358 7.501 7.5 7.501z" fill="#cbe5e8"/><g><path d="m263.22 424.398c-4.143 0-7.5-3.358-7.5-7.5v-119.734c0-1.989.79-3.896 2.196-5.303l16.03-16.03v-60.696c0-4.142 3.357-7.5 7.5-7.5s7.5 3.358 7.5 7.5v63.802c0 1.989-.79 3.896-2.196 5.303l-16.03 16.03v116.628c0 4.143-3.357 7.5-7.5 7.5z" fill="#eef5f6"/></g><g><path d="m294.788 420.472c-4.143 0-7.5-3.358-7.5-7.5v-65.924c0-1.989.79-3.897 2.196-5.303l33.58-33.58v-35.145c0-4.142 3.357-7.5 7.5-7.5s7.5 3.358 7.5 7.5v38.251c0 1.989-.79 3.897-2.196 5.303l-33.58 33.58v62.818c0 4.142-3.358 7.5-7.5 7.5z" fill="#eef5f6"/></g><path d="m239.018 454.344v-25.163h-37.053v25.163c0 7.896 6.401 14.297 14.297 14.297h37.053c-7.896 0-14.297-6.401-14.297-14.297z" fill="#c9bfc8"/><path d="m315.156 399.644h-119.438c-10.089 0-18.269 8.179-18.269 18.269 0 10.089 8.179 18.269 18.269 18.269h119.438c10.089 0 18.269-8.179 18.269-18.269 0-10.09-8.179-18.269-18.269-18.269z" fill="#e5e1e5"/><path d="m214.502 417.913c0-10.089 8.179-18.269 18.269-18.269h-37.053c-10.089 0-18.269 8.179-18.269 18.269s8.179 18.269 18.269 18.269h37.053c-10.089-.001-18.269-8.18-18.269-18.269z" fill="#d7d0d6"/><path d="m291.833 227.135h-20.772c-3.681 0-6.665-2.984-6.665-6.665v-20.772c0-3.681 2.984-6.665 6.665-6.665h20.772c3.681 0 6.665 2.984 6.665 6.665v20.772c0 3.681-2.984 6.665-6.665 6.665z" fill="#f07281"/><path d="m233.795 291.408h-20.772c-3.681 0-6.665-2.984-6.665-6.665v-20.772c0-3.681 2.984-6.665 6.665-6.665h20.772c3.681 0 6.665 2.984 6.665 6.665v20.772c0 3.681-2.984 6.665-6.665 6.665z" fill="#62dbfb"/><path d="m190.09 221.059h-25.28c-3.681 0-6.665-2.984-6.665-6.665v-25.28c0-3.681 2.984-6.665 6.665-6.665h25.28c3.681 0 6.665 2.984 6.665 6.665v25.28c0 3.681-2.984 6.665-6.665 6.665z" fill="#6cf5c2"/><path d="m211.776 147.164h-15.344c-3.681 0-6.665-2.984-6.665-6.665v-15.344c0-3.681 2.984-6.665 6.665-6.665h15.344c3.681 0 6.665 2.984 6.665 6.665v15.344c0 3.681-2.984 6.665-6.665 6.665z" fill="#fec165"/><path d="m51.94 294.052h-15.344c-3.681 0-6.665-2.984-6.665-6.665v-15.344c0-3.681 2.984-6.665 6.665-6.665h15.344c3.681 0 6.665 2.984 6.665 6.665v15.344c0 3.681-2.984 6.665-6.665 6.665z" fill="#f07281"/><path d="m103.003 376.23h-25.146c-3.681 0-6.665-2.984-6.665-6.665v-25.147c0-3.681 2.984-6.665 6.665-6.665h25.147c3.681 0 6.665 2.984 6.665 6.665v25.147c0 3.681-2.985 6.665-6.666 6.665z" fill="#8ebac5"/><path d="m180.195 95.245h-29.237c-3.681 0-6.665-2.984-6.665-6.665v-29.238c0-3.681 2.984-6.665 6.665-6.665h29.237c3.681 0 6.665 2.984 6.665 6.665v29.237c.001 3.682-2.984 6.666-6.665 6.666z" fill="#fee45a"/><path d="m418.807 409.389h-32.376c-3.681 0-6.665-2.984-6.665-6.665v-32.376c0-3.681 2.984-6.665 6.665-6.665h32.376c3.681 0 6.665 2.984 6.665 6.665v32.376c0 3.681-2.984 6.665-6.665 6.665z" fill="#f07281"/><path d="m458.326 332.459h-19.046c-3.681 0-6.665-2.984-6.665-6.665v-19.045c0-3.681 2.984-6.665 6.665-6.665h19.045c3.681 0 6.665 2.984 6.665 6.665v19.045c.001 3.681-2.983 6.665-6.664 6.665z" fill="#6cf5c2"/><path d="m107.035 39.004h-17.634c-3.681 0-6.665-2.984-6.665-6.665v-17.634c0-3.681 2.984-6.665 6.665-6.665h17.634c3.681 0 6.665 2.984 6.665 6.665v17.634c0 3.681-2.984 6.665-6.665 6.665z" fill="#f07281"/><path d="m57.108 99.376h-13.73c-3.681 0-6.665-2.984-6.665-6.665v-13.73c0-3.681 2.984-6.665 6.665-6.665h13.73c3.681 0 6.665 2.984 6.665 6.665v13.73c0 3.681-2.984 6.665-6.665 6.665z" fill="#8ebac5"/><path d="m337.923 284.881h-16.392c-2.801 0-5.071-2.271-5.071-5.071v-16.392c0-2.801 2.271-5.071 5.071-5.071h16.392c2.801 0 5.071 2.271 5.071 5.071v16.392c.001 2.801-2.27 5.071-5.071 5.071z" fill="#fec165"/><path d="m305.905 56.035v71.405c0 22.511 18.313 40.824 40.824 40.824h63.817c-13.496-52.857-53.3-95.186-104.641-112.229z" fill="#8ebac5"/><g><path d="m390.324 167.691c-4.143 0-7.5-3.358-7.5-7.5v-30.927c0-4.142 3.357-7.5 7.5-7.5s7.5 3.358 7.5 7.5v30.927c0 4.142-3.358 7.5-7.5 7.5z" fill="#e5e1e5"/></g><g><path d="m354.568 167.691c-4.143 0-7.5-3.358-7.5-7.5v-34.927c0-4.142 3.357-7.5 7.5-7.5s7.5 3.358 7.5 7.5v34.927c0 4.142-3.357 7.5-7.5 7.5z" fill="#e5e1e5"/></g><g><path d="m426.08 167.691c-4.143 0-7.5-3.358-7.5-7.5v-33.927c0-4.142 3.357-7.5 7.5-7.5s7.5 3.358 7.5 7.5v33.927c0 4.142-3.358 7.5-7.5 7.5z" fill="#e5e1e5"/></g><g><path d="m344.905 91.346h-30.927c-4.143 0-7.5-3.358-7.5-7.5s3.357-7.5 7.5-7.5h30.927c4.143 0 7.5 3.358 7.5 7.5s-3.357 7.5-7.5 7.5z" fill="#e5e1e5"/></g><g><path d="m345.905 55.59h-31.927c-4.143 0-7.5-3.358-7.5-7.5s3.357-7.5 7.5-7.5h31.927c4.143 0 7.5 3.358 7.5 7.5s-3.357 7.5-7.5 7.5z" fill="#e5e1e5"/></g><g><path d="m342.905 127.102h-28.927c-4.143 0-7.5-3.358-7.5-7.5s3.357-7.5 7.5-7.5h28.927c4.143 0 7.5 3.358 7.5 7.5s-3.357 7.5-7.5 7.5z" fill="#e5e1e5"/></g><path d="m433.918 143.264h-87.188c-8.74 0-15.824-7.085-15.824-15.824v-87.188c0-8.74 7.085-15.824 15.824-15.824h87.188c8.74 0 15.824 7.085 15.824 15.824v87.188c0 8.739-7.085 15.824-15.824 15.824z" fill="#6cf5c2"/><path d="m367.823 127.44v-87.188c0-8.74 7.085-15.824 15.824-15.824h-36.918c-8.74 0-15.824 7.085-15.824 15.824v87.188c0 8.74 7.085 15.824 15.824 15.824h36.918c-8.739 0-15.824-7.084-15.824-15.824z" fill="#00f2a6"/><path d="m360.905 108.708v-49.724c0-2.517 2.04-4.557 4.557-4.557h49.723c2.517 0 4.557 2.04 4.557 4.557v49.723c0 2.517-2.04 4.557-4.557 4.557h-49.723c-2.517 0-4.557-2.04-4.557-4.556z" fill="#7ca1b1"/><path d="m365.462 54.427c-2.517 0-4.557 2.04-4.557 4.557v49.723c0 2.517 2.04 4.557 4.557 4.557h2.361v-58.837z" fill="#678d98"/></svg>