<?xml version="1.0" encoding="UTF-8"?><svg id="Layer_1" xmlns="http://www.w3.org/2000/svg" viewBox="0 0 591 363"><defs><style>.cls-1{fill:#022c6c;}.cls-2{fill:#fff;}.cls-3{fill:#c41c44;}</style></defs><path class="cls-1" d="M82.74,332.82h-11.35v-36.99l-19.97,35.12c-.49.9-1.18,1.57-2.06,2.04-.88.46-1.83.69-2.84.69s-1.9-.23-2.75-.69c-.85-.46-1.52-1.14-2.01-2.04l-20.05-35.12v36.99h-11.26v-57.3c0-1.3.38-2.45,1.15-3.46.76-1.01,1.77-1.69,3.01-2.04.61-.14,1.21-.2,1.82-.15.61.04,1.19.17,1.75.39s1.08.52,1.54.91c.46.39.85.86,1.17,1.41l25.64,44.57,25.64-44.57c.66-1.1,1.58-1.88,2.75-2.34s2.39-.53,3.66-.22c1.21.35,2.21,1.03,2.99,2.04.78,1.01,1.17,2.17,1.17,3.46v57.3Z"/><path class="cls-1" d="M142.68,317.31c0,1.56-.27,3.24-.82,5.05-.55,1.8-1.44,3.48-2.66,5.02-1.23,1.54-2.83,2.84-4.81,3.88-1.98,1.04-4.38,1.56-7.21,1.56h-20.31c-1.56,0-3.24-.27-5.05-.82-1.8-.55-3.48-1.44-5.02-2.66-1.54-1.23-2.84-2.83-3.88-4.81-1.04-1.98-1.56-4.38-1.56-7.21,0-1.56.27-3.25.82-5.07.55-1.82,1.44-3.5,2.66-5.05,1.23-1.54,2.83-2.84,4.81-3.88,1.98-1.04,4.38-1.56,7.21-1.56h20.31v10.74h-20.31c-1.53,0-2.71.47-3.55,1.41-.84.94-1.26,2.1-1.26,3.49,0,1.47.48,2.62,1.45,3.44.97.82,2.11,1.23,3.44,1.23h20.23c1.53,0,2.71-.46,3.55-1.39.84-.92,1.26-2.08,1.26-3.46v-15.72c0-1.47-.45-2.64-1.36-3.51-.91-.87-2.06-1.3-3.44-1.3h-24.73v-10.7h24.73c1.56,0,3.24.28,5.05.82,1.8.55,3.48,1.44,5.02,2.66,1.54,1.23,2.84,2.83,3.88,4.81,1.04,1.98,1.56,4.38,1.56,7.21v15.81Z"/><path class="cls-1" d="M193.27,297.26h-25.34c-1.53,0-2.69.38-3.46,1.15-.78.77-1.17,1.88-1.17,3.36v31.05h-11.26v-31.05c0-1.93.25-3.67.74-5.2.49-1.53,1.15-2.88,1.97-4.05.82-1.17,1.77-2.17,2.84-2.99,1.07-.82,2.19-1.49,3.36-2.01,1.17-.52,2.35-.9,3.55-1.15,1.2-.24,2.32-.37,3.36-.37h25.42v11.26Z"/><path class="cls-1" d="M256.54,286c-1.27,3.96-2.76,7.85-4.46,11.69-1.7,3.84-3.66,7.5-5.87,10.98s-4.68,6.7-7.41,9.66c-2.73,2.96-5.75,5.52-9.05,7.67-3.31,2.15-6.9,3.84-10.78,5.07-3.88,1.23-8.09,1.84-12.62,1.84-.78,0-1.52-.14-2.21-.43-.69-.29-1.3-.69-1.82-1.19-.52-.5-.92-1.1-1.21-1.78-.29-.68-.43-1.41-.43-2.19v-41.32h11.26v35.21c2.74,0,5.38-.59,7.9-1.78,2.53-1.18,4.92-2.75,7.17-4.7,2.25-1.95,4.34-4.17,6.26-6.65,1.92-2.48,3.63-5.03,5.13-7.64,1.5-2.61,2.78-5.18,3.83-7.69,1.05-2.51,1.84-4.76,2.36-6.76h11.95Z"/><path class="cls-1" d="M310.94,301.5c0,1.56-.28,3.24-.82,5.05-.55,1.8-1.44,3.48-2.66,5.02-1.23,1.54-2.83,2.84-4.81,3.88-1.98,1.04-4.38,1.56-7.21,1.56h-20.31v-10.7h20.31c1.53,0,2.71-.47,3.55-1.41.84-.94,1.26-2.1,1.26-3.49,0-1.47-.47-2.63-1.41-3.46-.94-.84-2.07-1.26-3.4-1.26h-20.31c-1.53,0-2.71.47-3.55,1.41-.84.94-1.26,2.1-1.26,3.49v15.72c0,1.5.47,2.67,1.41,3.51.94.84,2.1,1.26,3.49,1.26h20.23v10.74h-20.31c-1.56,0-3.24-.27-5.05-.82-1.8-.55-3.48-1.44-5.02-2.66-1.54-1.23-2.84-2.83-3.88-4.81-1.04-1.98-1.56-4.38-1.56-7.21v-15.81c0-1.56.27-3.24.82-5.04s1.44-3.48,2.66-5.02c1.23-1.54,2.83-2.84,4.81-3.88,1.98-1.04,4.38-1.56,7.21-1.56h20.31c1.56,0,3.24.28,5.05.82,1.8.55,3.48,1.44,5.02,2.66,1.54,1.23,2.84,2.83,3.88,4.81,1.04,1.98,1.56,4.38,1.56,7.21Z"/><path class="cls-1" d="M339.09,332.82h-5.02c-1.62,0-3.34-.27-5.18-.82-1.83-.55-3.54-1.45-5.13-2.71-1.59-1.26-2.9-2.89-3.94-4.89-1.04-2.01-1.56-4.47-1.56-7.38v-50.8h11.26v50.8c0,1.39.43,2.49,1.3,3.31.87.82,1.95,1.23,3.25,1.23h5.02v11.26Z"/><path class="cls-3" d="M405.48,314.54c0,2.22-.28,4.22-.84,6-.56,1.78-1.31,3.34-2.23,4.7-.92,1.36-2.01,2.51-3.25,3.46-1.24.95-2.53,1.73-3.85,2.34-1.33.61-2.68,1.05-4.05,1.34-1.37.29-2.66.43-3.88.43h-43.44v-11.26h43.44c2.17,0,3.85-.63,5.05-1.91,1.2-1.27,1.8-2.97,1.8-5.11,0-1.04-.16-1.99-.48-2.86s-.77-1.62-1.36-2.25c-.59-.63-1.31-1.13-2.17-1.47-.85-.35-1.8-.52-2.84-.52h-25.9c-1.82,0-3.78-.33-5.89-.97s-4.06-1.7-5.87-3.14c-1.8-1.44-3.31-3.33-4.5-5.67-1.2-2.34-1.8-5.2-1.8-8.58s.6-6.23,1.8-8.55c1.2-2.32,2.7-4.21,4.5-5.67s3.76-2.51,5.87-3.16c2.11-.65,4.07-.97,5.89-.97h38.33v11.26h-38.33c-2.14,0-3.8.65-5,1.95-1.2,1.3-1.8,3.02-1.8,5.15s.6,3.88,1.8,5.13c1.2,1.26,2.87,1.88,5,1.88h25.99c1.21.03,2.5.19,3.85.5,1.36.3,2.71.77,4.05,1.41,1.34.64,2.62,1.44,3.83,2.4,1.21.97,2.29,2.13,3.23,3.49.94,1.36,1.68,2.92,2.23,4.68.55,1.76.82,3.75.82,5.98Z"/><path class="cls-3" d="M449.44,332.82h-20.31c-1.62,0-3.34-.27-5.18-.82-1.83-.55-3.54-1.45-5.13-2.71-1.59-1.26-2.9-2.89-3.94-4.89-1.04-2.01-1.56-4.47-1.56-7.38v-31.01h11.26v31.01c0,1.47.39,2.6,1.17,3.38.78.78,1.93,1.17,3.46,1.17h20.23v11.26ZM465.21,337.32c0,1.93-.25,3.67-.74,5.22-.49,1.54-1.14,2.9-1.95,4.07s-1.75,2.17-2.82,2.99-2.19,1.49-3.36,2.01c-1.17.52-2.35.9-3.53,1.15-1.18.25-2.31.37-3.38.37h-20.31v-11.26h20.31c1.5,0,2.63-.39,3.38-1.17.75-.78,1.13-1.91,1.13-3.38v-51.32h11.26v51.32Z"/><path class="cls-3" d="M527.83,332.82h-11.26v-25.99c0-1.47-.25-2.79-.76-3.96-.5-1.17-1.19-2.17-2.06-3.01-.87-.84-1.88-1.48-3.05-1.93-1.17-.45-2.43-.67-3.79-.67h-19.71v35.56h-11.26v-41.23c0-.78.14-1.51.43-2.19.29-.68.69-1.27,1.21-1.78.52-.5,1.13-.9,1.82-1.19.69-.29,1.43-.43,2.21-.43h25.38c1.42,0,2.91.16,4.48.48,1.57.32,3.13.83,4.68,1.54,1.54.71,3.02,1.6,4.42,2.68,1.4,1.08,2.64,2.4,3.72,3.94,1.08,1.54,1.94,3.33,2.58,5.35.63,2.02.95,4.3.95,6.84v25.99Z"/><path class="cls-3" d="M583.05,332.82h-30.53c-1.56,0-3.26-.27-5.11-.82-1.85-.55-3.56-1.45-5.13-2.71-1.57-1.26-2.89-2.89-3.94-4.89-1.05-2.01-1.58-4.47-1.58-7.38v-15.25c0-1.07.12-2.19.37-3.38.25-1.18.63-2.36,1.15-3.53.52-1.17,1.19-2.29,2.01-3.36.82-1.07,1.82-2.01,2.99-2.82,1.17-.81,2.52-1.46,4.05-1.95,1.53-.49,3.26-.74,5.2-.74h30.53v11.26h-30.53c-1.47,0-2.59.38-3.36,1.13-.77.75-1.15,1.91-1.15,3.46v15.16c0,1.47.39,2.6,1.17,3.38s1.92,1.17,3.42,1.17h30.45v11.26Z"/><path class="cls-1" d="M382.64,68.6h-.05s.02.03.03.04l.02-.04Z"/><path class="cls-3" d="M233.97,144.93l38.88,44.23,43.29-84.77,37.86,42.19,39.39-58.74c-2.93-6.79-6.55-13.23-10.76-19.2l-31,47.65-39.7-44.25-43.15,84.51-36.64-41.69-36.37,52.47c2.48,6.59,5.6,12.88,9.28,18.78l28.93-41.17Z"/><path class="cls-1" d="M404.41,68.6h-21.76l-.02.04c4.22,5.98,7.83,12.41,10.76,19.2,5.57,12.91,8.66,27.12,8.66,42.05,0,58.75-47.79,106.54-106.54,106.54-30.22,0-57.54-12.66-76.94-32.95h-24.03c22.76,31.14,59.54,51.41,100.98,51.41,68.92,0,125-56.08,125-125,0-22.26-5.85-43.17-16.09-61.29Z"/><path class="cls-1" d="M205.04,186.1c-3.68-5.9-6.8-12.18-9.28-18.78-4.39-11.65-6.79-24.27-6.79-37.43,0-58.75,47.79-106.54,106.54-106.54,27.62,0,52.82,10.57,71.77,27.87h25.29c-22.94-28.25-57.93-46.33-97.06-46.33-68.93,0-125,56.07-125,125,0,20.21,4.83,39.3,13.37,56.21h21.16s0,0,0,0Z"/><circle class="cls-3" cx="353.71" cy="136.91" r="17.49"/><circle class="cls-2" cx="353.71" cy="136.91" r="7.3"/><circle class="cls-3" cx="313.53" cy="81.52" r="17.49"/><circle class="cls-2" cx="313.53" cy="81.52" r="7.3"/><circle class="cls-3" cx="232.08" cy="122.79" r="17.49"/><circle class="cls-2" cx="232.08" cy="122.79" r="7.3"/><circle class="cls-3" cx="273.32" cy="173.3" r="17.49"/><circle class="cls-2" cx="273.32" cy="173.3" r="7.3"/></svg>