<svg id="Layer_1" enable-background="new 0 0 66 66" height="512" viewBox="0 0 66 66" width="512" xmlns="http://www.w3.org/2000/svg"><g><path d="m2 55.66c0 4.53 3.67 8.2 8.2 8.2h45.6c4.53 0 8.2-3.67 8.2-8.2z" fill="#bed3e3"/><path d="m2 55.66c0 4.41 3.48 8 7.85 8.18-.01-.01-.02-.03-.03-.04-1.66-2.06-.07-5.14 2.57-5.14h51.04c.37-.93.58-1.94.58-3z" fill="#a4c0d8"/><g><path d="m36.13 60.76h-6.25c-.55 0-1-.45-1-1s.45-1 1-1h6.25c.55 0 1 .45 1 1s-.45 1-1 1z" fill="#44394a"/></g><path d="m55.92 17.8h-45.85c-2.21 0-4 1.79-4 4v33.85h53.85v-33.85c0-2.21-1.79-4-4-4z" fill="#bed3e3"/><path d="m10.07 21.8h45.85v29.85h-45.85z" fill="#5f6fe7"/><path d="m51.92 21.8c0 14.28-11.57 25.85-25.85 25.85h-16v4h45.85v-29.85z" fill="#505fe1"/><path d="m16.89 2.14h32.22v7.93h-32.22z" fill="#e1533b"/><path d="m46.1 2.14c0 2.72-2.21 4.93-4.93 4.93h-21.28c-1.66 0-3 1.34-3 3h32.22v-7.93z" fill="#d33d24"/><g fill="#f4b601"><circle cx="21.41" cy="6.11" r="1.03"/><circle cx="24.93" cy="6.11" r="1.03"/><circle cx="28.45" cy="6.11" r="1.03"/></g><path d="m17.07 10.07h32.22v33.91h-32.22z" fill="#e6e9ee"/><path d="m45.28 10.07v1.7c0 15.58-12.63 28.21-28.21 28.21v4h32.22v-33.91z" fill="#c8ced6"/><g><path d="m28.1 24.81c-.26 0-.51-.1-.71-.29l-3.29-3.28c-.19-.19-.29-.44-.29-.71s.11-.52.29-.71l3.29-3.28c.39-.39 1.02-.39 1.41 0s.39 1.02 0 1.41l-2.58 2.58 2.58 2.58c.39.39.39 1.02 0 1.41-.19.19-.44.29-.7.29z" fill="#44394a"/></g><g><path d="m44.85 32.83h-3.48c-.55 0-1-.45-1-1s.45-1 1-1h3.48c.55 0 1 .45 1 1s-.45 1-1 1z" fill="#30aa87"/></g><g><path d="m38.28 32.83h-1.88c-.55 0-1-.45-1-1s.45-1 1-1h1.88c.55 0 1 .45 1 1s-.44 1-1 1z" fill="#f4b601"/></g><g><path d="m24.28 32.83h-3.14c-.55 0-1-.45-1-1s.45-1 1-1h3.14c.55 0 1 .45 1 1s-.44 1-1 1z" fill="#1f81a3"/></g><g><path d="m33 32.83h-5.83c-.55 0-1-.45-1-1s.45-1 1-1h5.83c.55 0 1 .45 1 1s-.45 1-1 1z" fill="#30aa87"/></g><g><path d="m24.69 36.72h-3.54c-.55 0-1-.45-1-1s.45-1 1-1h3.54c.55 0 1 .45 1 1s-.45 1-1 1z" fill="#30aa87"/></g><g><path d="m29.29 36.72h-1.64c-.55 0-1-.45-1-1s.45-1 1-1h1.64c.55 0 1 .45 1 1s-.45 1-1 1z" fill="#f4b601"/></g><g><path d="m44.85 36.72h-6.12c-.55 0-1-.45-1-1s.45-1 1-1h6.12c.55 0 1 .45 1 1s-.45 1-1 1z" fill="#1f81a3"/></g><g><path d="m35.6 36.72h-3.43c-.55 0-1-.45-1-1s.45-1 1-1h3.43c.55 0 1 .45 1 1s-.44 1-1 1z" fill="#30aa87"/></g><g><path d="m44.85 40.61h-3.48c-.55 0-1-.45-1-1s.45-1 1-1h3.48c.55 0 1 .45 1 1s-.45 1-1 1z" fill="#30aa87"/></g><g><path d="m38.28 40.61h-1.88c-.55 0-1-.45-1-1s.45-1 1-1h1.88c.55 0 1 .45 1 1s-.44 1-1 1z" fill="#f4b601"/></g><g><path d="m24.28 40.61h-3.14c-.55 0-1-.45-1-1s.45-1 1-1h3.14c.55 0 1 .45 1 1s-.44 1-1 1z" fill="#f4b601"/></g><g><path d="m33 40.61h-5.83c-.55 0-1-.45-1-1s.45-1 1-1h5.83c.55 0 1 .45 1 1s-.45 1-1 1z" fill="#1f81a3"/></g><g><path d="m37.9 24.81c-.26 0-.51-.1-.71-.29-.39-.39-.39-1.02 0-1.41l2.58-2.58-2.58-2.58c-.39-.39-.39-1.02 0-1.41s1.02-.39 1.41 0l3.29 3.28c.19.19.29.44.29.71s-.11.52-.29.71l-3.29 3.28c-.19.19-.45.29-.7.29z" fill="#44394a"/></g><g><path d="m30.87 27.6c-.11 0-.22-.02-.33-.06-.52-.18-.8-.75-.61-1.27l4.26-12.16c.18-.52.75-.8 1.27-.61.52.18.8.75.61 1.27l-4.26 12.16c-.14.42-.53.67-.94.67z" fill="#44394a"/></g></g></svg>