<svg id="Layer_1" enable-background="new 0 0 32 32" height="512" viewBox="0 0 32 32" width="512" xmlns="http://www.w3.org/2000/svg"><g><g><g><path d="m25.413 22.775v-15.301c0-.872-.707-1.579-1.579-1.579h-22.212c-.872 0-1.579.707-1.579 1.579v15.301z" fill="#6f7070"/></g><g><path d="m1.622 7.474h22.212v14.823h-22.212z" fill="#fdbc4b"/></g><g><path d="m.043 22.3v2.172c0 .872.707 1.579 1.579 1.579h22.212c.872 0 1.579-.707 1.579-1.579v-2.172z" fill="#e5e5e5"/></g><g><path d="m8.458 26.051h8.54v3.066h-8.54z" fill="#cacaca"/></g><g><path d="m18.925 29.117h-12.395c-.394 0-.713.319-.713.713 0 .394.319.713.713.713h12.395c.394 0 .713-.319.713-.713.001-.393-.319-.713-.713-.713z" fill="#e5e5e5"/></g><g><g><path d="m13.2 24.965h-.943c-.436 0-.79-.353-.79-.79 0-.436.354-.79.79-.79h.943c.436 0 .79.353.79.79-.001.437-.354.79-.79.79z" fill="#cacaca"/></g></g><g opacity=".07"><path d="m8.458 26.051 8.54 1.968v-1.968z" fill="#010101"/></g><g><path d="m7.744 22.3c.613 0 1.11-.497 1.11-1.11s-.497-1.11-1.11-1.11h-1.484c-.513 0-.931-.42-.928-.933v-.012c0-.023-.001-.045-.002-.068-.031-.506.371-.932.878-.932h3.546c.601 0 1.14-.45 1.171-1.05.034-.64-.476-1.17-1.108-1.17h-2.189c-.516 0-.933-.42-.93-.936v-.064-.013c-.003-.543.438-.987.981-.987h.226c.601 0 1.14-.45 1.171-1.05.034-.64-.476-1.17-1.108-1.17h-2.277c-.536 0-.936-.45-.93-.987 0-.004 0-.009 0-.013s0-.009 0-.013c-.006-.536.394-.987.93-.987h.917c.601 0 1.14-.45 1.171-1.05.034-.64-.476-1.17-1.108-1.17h-5.05v14.825z" fill="#ffcc5b"/></g><g><g><path d="m4.011 23.4h-1.614c-.428 0-.775.347-.775.775s.347.775.775.775h1.614c.428 0 .775-.347.775-.775s-.347-.775-.775-.775z" fill="#d9dadb"/></g><g><path d="m6.055 23.4h-.097c-.428 0-.775.347-.775.775s.347.775.775.775h.097c.428 0 .775-.347.775-.775s-.347-.775-.775-.775z" fill="#d9dadb"/></g></g></g><g opacity=".1"><path d="m25.413 24.472v-1.696-.476-12.966l-8.978 2.526-2.446 3.35 10.626 10.626c.475-.272.798-.778.798-1.364z" fill="#010101"/></g><g><g><g><path d="m22.405 11.587h3.071v5.096h-3.071z" fill="#464646" transform="matrix(.707 -.707 .707 .707 -2.983 21.069)"/></g><g><path d="m31.379 21.574c-.771.771-2.021.771-2.793 0l-4.24-4.24 2.793-2.793 4.24 4.24c.771.771.771 2.021 0 2.793z" fill="#e95454"/></g><g><circle cx="19.085" cy="9.279" fill="#464646" r="7.823"/></g><g><circle cx="19.085" cy="9.279" fill="#3789c9" r="5.951"/></g><g><path d="m31.379 18.781-4.24-4.24-1.488 1.488c-.233.233-.233.611 0 .844s.611.233.844 0l.564-.564c.195-.195.514-.194.708.002l.005.005c.009.009.017.017.027.025.204.181.213.495.021.688l-.896.896c-.229.229-.262.604-.046.845.231.256.626.264.866.023l1.091-1.091c.196-.196.515-.195.71.002l.024.025.005.005c.208.205.209.542.002.748l-.551.551c-.228.228-.262.604-.046.845.231.256.625.264.866.023l.619-.619c.204-.204.527-.185.729.022l.005.005.005.005c.206.202.226.525.022.729l-.704.704c-.228.228-.262.604-.046.845.218.242.579.254.822.052.027-.024.058-.042.084-.068.769-.774.769-2.024-.002-2.795z" fill="#ed6362"/></g></g><g><g><path d="m14.371 9.866.661-.064c.04.222.121.385.242.489.122.104.286.156.492.156.219 0 .384-.046.495-.139s.166-.201.166-.325c0-.08-.023-.147-.07-.203s-.128-.104-.244-.146c-.08-.028-.261-.077-.544-.147-.364-.09-.62-.201-.767-.333-.207-.185-.31-.411-.31-.677 0-.171.049-.332.146-.481s.237-.263.42-.341.404-.117.662-.117c.422 0 .74.093.954.278s.326.432.337.741l-.679.03c-.029-.173-.091-.297-.187-.373s-.239-.114-.43-.114c-.197 0-.352.041-.464.122-.072.052-.108.122-.108.209 0 .08.034.148.101.204.086.072.294.147.624.225.331.078.575.159.733.242s.282.197.372.342.134.323.134.536c0 .193-.054.373-.161.542-.107.168-.259.293-.455.375s-.44.123-.732.123c-.425 0-.752-.098-.98-.295-.228-.196-.364-.483-.408-.859z" fill="#fff"/></g><g><path d="m17.679 10.961v-3.365h2.495v.569h-1.816v.746h1.689v.567h-1.689v.916h1.88v.567z" fill="#fff"/></g><g><path d="m20.677 9.299c0-.343.051-.63.154-.863.077-.171.181-.325.313-.461s.277-.237.435-.303c.21-.089.451-.133.725-.133.496 0 .893.154 1.19.461s.446.735.446 1.283c0 .543-.148.968-.443 1.275s-.69.46-1.184.46c-.5 0-.898-.153-1.194-.458-.295-.305-.442-.726-.442-1.261zm.7-.023c0 .381.088.67.264.867s.399.295.67.295.493-.098.667-.293.261-.488.261-.878c0-.386-.085-.673-.254-.863s-.394-.285-.674-.285-.506.096-.677.288-.257.482-.257.869z" fill="#fff"/></g></g></g></g></svg>