<svg id="Layer_1" enable-background="new 0 0 512 512" height="512" viewBox="0 0 512 512" width="512" xmlns="http://www.w3.org/2000/svg"><g clip-rule="evenodd" fill-rule="evenodd"><path d="m338.92 270.704c-17.477 0-26.246 21.173-13.889 33.531 2.276 2.276 2.276 5.969 0 8.245l-12.551 12.551c-2.277 2.277-5.969 2.277-8.245 0-12.358-12.357-33.531-3.588-33.531 13.889 0 3.221-2.61 5.829-5.83 5.829h-17.749c-3.219 0-5.83-2.608-5.83-5.829 0-17.499-21.158-26.262-33.531-13.889-2.276 2.277-5.969 2.277-8.245 0l-12.551-12.551c-2.276-2.276-2.276-5.969 0-8.245 12.358-12.358 3.589-33.531-13.889-33.531-3.221 0-5.83-2.611-5.83-5.83v-17.749c0-3.219 2.609-5.83 5.83-5.83 17.477 0 26.246-21.173 13.889-33.531-2.276-2.276-2.276-5.968 0-8.245l12.551-12.551c2.276-2.276 5.969-2.276 8.245 0 12.358 12.358 33.531 3.589 33.531-13.889 0-3.221 2.611-5.83 5.83-5.83h17.749c3.219 0 5.83 2.609 5.83 5.83 0 17.478 21.173 26.246 33.531 13.889 2.276-2.276 5.968-2.276 8.245 0l12.551 12.551c2.276 2.277 2.276 5.969 0 8.245-12.358 12.358-3.588 33.531 13.889 33.531 3.221 0 5.83 2.611 5.83 5.83v17.749c0 3.22-2.609 5.83-5.83 5.83zm-82.92-57.346c-23.55 0-42.642 19.091-42.642 42.642s19.091 42.642 42.642 42.642 42.642-19.091 42.642-42.642-19.091-42.642-42.642-42.642z" fill="#fdcd56"/><path d="m491.948 266.22c-12.147 0-18.242 14.716-9.653 23.305 1.582 1.582 1.582 4.148 0 5.73l-8.723 8.723c-1.582 1.583-4.148 1.583-5.73 0-8.589-8.588-23.305-2.494-23.305 9.653 0 2.239-1.814 4.052-4.052 4.052h-12.336c-2.237 0-4.052-1.813-4.052-4.052 0-12.162-14.705-18.253-23.305-9.653-1.582 1.583-4.148 1.583-5.731 0l-8.723-8.723c-1.582-1.582-1.582-4.148 0-5.73 8.589-8.589 2.494-23.305-9.653-23.305-2.238 0-4.052-1.814-4.052-4.052v-12.336c0-2.237 1.813-4.052 4.052-4.052 12.147 0 18.242-14.716 9.653-23.305-1.582-1.582-1.582-4.148 0-5.731l8.723-8.723c1.582-1.582 4.148-1.582 5.731 0 8.589 8.589 23.305 2.494 23.305-9.653 0-2.239 1.814-4.052 4.052-4.052h12.336c2.237 0 4.052 1.813 4.052 4.052 0 12.147 14.716 18.242 23.305 9.653 1.582-1.582 4.148-1.582 5.73 0l8.723 8.723c1.582 1.582 1.582 4.149 0 5.731-8.589 8.589-2.494 23.305 9.653 23.305 2.239 0 4.052 1.814 4.052 4.052v12.336c0 2.237-1.813 4.052-4.052 4.052zm-57.631-39.857c-16.368 0-29.637 13.269-29.637 29.637s13.269 29.637 29.637 29.637 29.637-13.269 29.637-29.637-13.269-29.637-29.637-29.637z" fill="#636c77"/><path d="m135.314 266.22c-12.147 0-18.242 14.716-9.653 23.305 1.582 1.582 1.582 4.148 0 5.73l-8.723 8.723c-1.582 1.583-4.148 1.583-5.73 0-8.589-8.588-23.305-2.494-23.305 9.653 0 2.239-1.814 4.052-4.052 4.052h-12.336c-2.237 0-4.052-1.813-4.052-4.052 0-12.162-14.705-18.253-23.305-9.653-1.582 1.583-4.148 1.583-5.73 0l-8.723-8.723c-1.582-1.582-1.582-4.148 0-5.73 8.589-8.589 2.494-23.305-9.653-23.305-2.239 0-4.052-1.814-4.052-4.052v-12.336c0-2.237 1.813-4.052 4.052-4.052 12.147 0 18.242-14.716 9.653-23.305-1.582-1.582-1.582-4.148 0-5.731l8.723-8.723c1.582-1.582 4.148-1.582 5.73 0 8.589 8.589 23.305 2.494 23.305-9.653 0-2.239 1.814-4.052 4.052-4.052h12.336c2.237 0 4.052 1.813 4.052 4.052 0 12.147 14.716 18.242 23.305 9.653 1.582-1.582 4.148-1.582 5.73 0l8.723 8.723c1.582 1.582 1.582 4.149 0 5.731-8.589 8.589-2.494 23.305 9.653 23.305 2.239 0 4.052 1.814 4.052 4.052v12.336c0 2.237-1.813 4.052-4.052 4.052zm-57.631-39.857c-16.368 0-29.637 13.269-29.637 29.637s13.269 29.637 29.637 29.637 29.637-13.269 29.637-29.637-13.269-29.637-29.637-29.637z" fill="#636c77"/><g><g><path d="m111.609 356.996c-22.837 11.187-45.886 21.934-68.867 32.821l32.433 77.718 47.704-23.238c6.897-3.36 13.943-3.965 21.313-1.832l50.611 14.655c16.038 4.644 35.895-3.89 50.817-9.653l94.937-36.665c25-9.655 31.02-59.827-28.021-42.495l-67.733 19.884c-1.971-7.138-7.565-13.095-15.198-15.135l-45.888-12.259c-31.277-22.144-47.19-16.008-72.108-3.801z" fill="#efc7a4"/><path d="m244.85 399.417-102.589-27.407c-3.057 11.441 3.803 23.303 15.245 26.36l60.984 16.292c11.441 3.056 23.303-3.804 26.36-15.245z" fill="#d5a889"/></g><path d="m97.848 484.546-24.121 10.581c-5.233 2.296-11.374-.097-13.675-5.328-14.381-32.693-28.763-65.387-43.143-98.08-1.152-2.619-1.209-5.284-.171-7.949 1.039-2.666 2.883-4.59 5.503-5.739l24.122-10.581c5.233-2.296 11.373.096 13.674 5.327 14.381 32.693 28.763 65.387 43.144 98.08 1.152 2.619 1.209 5.284.171 7.95-1.039 2.666-2.884 4.59-5.504 5.739z" fill="#e4e8eb"/></g><g><g><path d="m400.391 155.004c22.837-11.187 45.886-21.934 68.867-32.821l-32.433-77.718-47.704 23.238c-6.897 3.36-13.943 3.965-21.313 1.831l-50.611-14.654c-16.038-4.644-35.895 3.89-50.817 9.653l-94.937 36.665c-25 9.655-31.02 59.827 28.021 42.494l67.734-19.884c1.971 7.138 7.565 13.095 15.198 15.135l45.888 12.259c31.276 22.145 47.189 16.009 72.107 3.802z" fill="#efc7a4"/><path d="m267.15 112.583 102.589 27.407c3.057-11.441-3.803-23.303-15.245-26.36l-60.984-16.292c-11.441-3.056-23.303 3.804-26.36 15.245z" fill="#d5a889"/></g><path d="m414.152 27.454 24.121-10.581c5.233-2.295 11.374.097 13.675 5.328 14.381 32.693 28.763 65.387 43.143 98.08 1.152 2.619 1.209 5.284.171 7.95-1.039 2.666-2.883 4.59-5.503 5.739l-24.122 10.581c-5.233 2.296-11.374-.096-13.674-5.327-14.381-32.693-28.762-65.387-43.143-98.08-1.152-2.619-1.209-5.284-.171-7.95 1.038-2.667 2.883-4.591 5.503-5.74z" fill="#e4e8eb"/></g></g></svg>