<?xml version="1.0" encoding="utf-8"?>
<!-- Generator: Adobe Illustrator 27.5.0, SVG Export Plug-In . SVG Version: 6.00 Build 0)  -->
<svg version="1.1" id="Layer_1" xmlns="http://www.w3.org/2000/svg" xmlns:xlink="http://www.w3.org/1999/xlink" x="0px" y="0px"
	 viewBox="0 0 5000 2916" style="enable-background:new 0 0 5000 2916;" xml:space="preserve">
<g>
	<rect x="0" style="fill-rule:evenodd;clip-rule:evenodd;fill:#FFFFFF;" width="5000" height="2916"/>
	<g>
		<defs>
			<path id="SVGID_1_" d="M3476.74,1857.329l-0.497-12.398l-2.52-13.795l1.102,12.279L3476.74,1857.329z M3481.09,1888.983
				l0.212-16.394l-3.416-18.669c0.223,5.531,0.445,11.065,0.665,16.589L3481.09,1888.983z M3480.807,1910.042l0.168-12.484
				l-1.902-13.854l0.489,12.457L3480.807,1910.042z M3480.628,1923.291l0.008-0.702l-0.069-0.75L3480.628,1923.291z
				 M3485.11,1918.349c0.418-6.028,0.83-12.076,1.245-18.123c-1.278-7.008-2.567-14.032-3.847-21.045
				c-0.08,6.131-0.162,12.245-0.245,18.368L3485.11,1918.349z M3483.544,1940.819l1.129-16.228l-2.528-18.468
				c-0.071,5.493-0.146,10.991-0.222,16.472L3483.544,1940.819z M3482.093,1961.48l0.882-12.545l-1.229-13.834l-0.181,12.56
				L3482.093,1961.48z M3481.172,1974.472l0.088-1.241l-0.049-1.293L3481.172,1974.472z M3488.988,1946.717
				c0.802-6.25,1.605-12.508,2.404-18.776c-1.371-7.524-2.731-15.032-4.1-22.56c-0.44,6.412-0.885,12.817-1.327,19.214
				L3488.988,1946.717z M3486.077,1969.366c0.764-5.912,1.525-11.847,2.286-17.78l-2.833-20.747
				c-0.42,6.043-0.841,12.088-1.267,18.116L3486.077,1969.366z M3483.225,1991.271l2.086-16.007l-1.61-18.204
				c-0.382,5.42-0.77,10.822-1.151,16.233L3483.225,1991.271z M3480.601,2011.38c0.544-4.147,1.088-8.292,1.629-12.448
				l-0.519-13.842c-0.297,4.206-0.596,8.414-0.896,12.611L3480.601,2011.38z M3478.886,2024.396l0.247-1.865l0.033-1.992
				L3478.886,2024.396z M3492.782,1974.557c1.209-6.328,2.418-12.671,3.627-19.011l-4.251-23.391
				c-0.833,6.503-1.668,12.99-2.5,19.476L3492.782,1974.557z M3488.512,1996.958c1.176-6.119,2.347-12.3,3.517-18.457l-2.998-22.001
				c-0.808,6.284-1.619,12.565-2.429,18.832L3488.512,1996.958z M3484.264,2018.936c1.121-5.784,2.248-11.56,3.366-17.364
				l-1.794-20.344c-0.772,5.942-1.544,11.884-2.316,17.809L3484.264,2018.936z M3480.131,2040.139l3.056-15.684
				c-0.22-5.917-0.445-11.858-0.665-17.785l-2.102,15.979C3480.326,2028.49,3480.23,2034.308,3480.131,2040.139z M3476.309,2059.754
				c0.805-4.118,1.61-8.26,2.415-12.395l0.223-13.504c-0.55,4.177-1.107,8.339-1.66,12.509L3476.309,2059.754z M3473.786,2072.678
				l0.451-2.311l0.173-2.35L3473.786,2072.678z M3496.555,2002.281c1.63-6.335,3.259-12.685,4.886-19.054
				c-1.459-8.042-2.927-16.103-4.388-24.149c-1.242,6.5-2.479,13.012-3.721,19.5L3496.555,2002.281z M3490.897,2024.106
				c1.602-6.19,3.209-12.362,4.809-18.558c-1.042-7.673-2.08-15.345-3.127-23.026c-1.217,6.39-2.429,12.807-3.652,19.152
				L3490.897,2024.106z M3485.259,2045.851c1.563-5.987,3.119-12.011,4.677-18.031l-1.891-21.531
				c-1.184,6.122-2.38,12.195-3.57,18.309C3484.739,2031.693,3484.998,2038.769,3485.259,2045.851z M3479.677,2067.168
				c1.484-5.659,2.973-11.301,4.457-16.98c-0.244-6.688-0.486-13.363-0.734-20.064c-1.129,5.804-2.259,11.603-3.391,17.393
				C3479.897,2054.07,3479.79,2060.626,3479.677,2067.168z M3474.231,2087.782l4.07-15.392l0.3-17.653
				c-1.025,5.286-2.053,10.585-3.086,15.834C3475.088,2076.323,3474.66,2082.044,3474.231,2087.782z M3469.189,2106.882
				c1.08-4.084,2.163-8.192,3.245-12.292l0.997-13.426c-0.802,4.065-1.613,8.089-2.418,12.151
				C3470.406,2097.839,3469.796,2102.365,3469.189,2106.882z M3465.68,2120.103c0.275-1.031,0.55-2.045,0.827-3.077l0.456-3.37
				L3465.68,2120.103z M3500.279,2029.718c2.058-6.28,4.114-12.546,6.172-18.835l-4.454-24.599
				c-1.657,6.48-3.322,12.924-4.985,19.377C3498.102,2013.681,3499.19,2021.703,3500.279,2029.718z M3493.263,2051.117
				c2.036-6.173,4.067-12.403,6.1-18.617l-3.198-23.572c-1.643,6.353-3.287,12.682-4.93,19.027L3493.263,2051.117z
				 M3486.229,2072.289c2.006-6.028,4.015-12.026,6.018-18.069c-0.654-7.508-1.316-15.033-1.976-22.55
				c-1.616,6.239-3.229,12.49-4.845,18.693C3485.693,2057.673,3485.965,2064.991,3486.229,2072.289z M3479.219,2093.272
				c1.954-5.831,3.905-11.67,5.853-17.519c-0.253-7.004-0.517-14.036-0.772-21.052c-1.569,5.984-3.146,11.909-4.718,17.884
				C3479.463,2079.489,3479.342,2086.383,3479.219,2093.272z M3472.266,2114.093c1.869-5.545,3.729-11.156,5.592-16.747
				l0.344-19.536c-1.498,5.678-2.995,11.349-4.496,17.016C3473.225,2101.251,3472.747,2107.681,3472.266,2114.093z
				 M3465.509,2133.956c1.698-5.003,3.396-9.982,5.094-14.979l1.305-17.346c-1.38,5.228-2.753,10.465-4.136,15.65
				C3467.021,2122.843,3466.268,2128.409,3465.509,2133.956z M3459.217,2152.454c1.371-4.023,2.745-8.059,4.116-12.094
				c0.602-4.426,1.204-8.86,1.808-13.292c-1.088,4.04-2.179,8.086-3.267,12.139
				C3460.989,2143.622,3460.107,2148.053,3459.217,2152.454z M3454.869,2165.239c0.357-1.044,0.715-2.099,1.069-3.149l0.692-3.393
				C3456.043,2160.875,3455.457,2163.065,3454.869,2165.239z M3503.98,2057.104c2.492-6.18,4.988-12.307,7.477-18.505
				c-1.509-8.35-3.009-16.683-4.523-25.04c-2.083,6.372-4.171,12.731-6.257,19.097L3503.98,2057.104z M3495.591,2077.858
				c2.476-6.107,4.952-12.229,7.422-18.362c-1.083-8.019-2.163-16.03-3.248-24.059c-2.072,6.328-4.138,12.679-6.216,18.959
				C3494.233,2062.229,3494.909,2070.039,3495.591,2077.858z M3487.174,2098.573c2.457-6.004,4.905-12.048,7.356-18.093
				c-0.665-7.662-1.327-15.312-1.998-22.983c-2.053,6.184-4.116,12.303-6.166,18.472
				C3486.638,2083.517,3486.907,2091.04,3487.174,2098.573z M3478.754,2119.004c2.413-5.859,4.831-11.694,7.241-17.565
				c-0.264-7.336-0.522-14.656-0.789-22.005c-2.017,6.058-4.04,12.116-6.062,18.149
				C3479.018,2104.735,3478.886,2111.87,3478.754,2119.004z M3470.351,2139.401c2.355-5.678,4.704-11.405,7.054-17.12
				c0.126-6.872,0.255-13.737,0.379-20.623c-1.968,5.88-3.935,11.761-5.908,17.605
				C3471.368,2125.983,3470.862,2132.698,3470.351,2139.401z M3462.028,2159.362c2.245-5.38,4.498-10.728,6.741-16.123
				c0.484-6.352,0.964-12.725,1.448-19.091c-1.877,5.517-3.751,11.016-5.625,16.53
				C3463.74,2146.917,3462.885,2153.137,3462.028,2159.362z M3453.858,2178.827c2.08-4.946,4.155-9.897,6.235-14.855
				c0.775-5.615,1.544-11.246,2.314-16.875c-1.737,5.125-3.479,10.257-5.221,15.349
				C3456.081,2167.923,3454.968,2173.363,3453.858,2178.827z M3446.235,2196.981c1.693-3.996,3.38-8.034,5.067-12.065
				c0.874-4.299,1.748-8.597,2.622-12.905c-1.349,3.921-2.701,7.792-4.053,11.709
				C3448.662,2188.162,3447.447,2192.549,3446.235,2196.981z M3441.127,2208.977c0.451-1.058,0.898-2.105,1.349-3.158l0.973-3.554
				C3442.677,2204.499,3441.899,2206.746,3441.127,2208.977z M3507.671,2084.414c2.927-6.051,5.842-12.165,8.76-18.255
				c-1.509-8.381-3.025-16.773-4.542-25.163c-2.514,6.261-5.04,12.449-7.557,18.695
				C3505.445,2067.932,3506.56,2076.181,3507.671,2084.414z M3497.91,2104.546c2.921-5.992,5.839-12.006,8.755-18.036
				c-1.096-8.134-2.201-16.286-3.3-24.427c-2.509,6.216-5.015,12.428-7.529,18.615
				C3496.528,2088.648,3497.223,2096.609,3497.91,2104.546z M3488.105,2124.562c2.905-5.916,5.809-11.839,8.711-17.78
				c-0.676-7.81-1.36-15.641-2.039-23.462c-2.492,6.142-4.993,12.27-7.488,18.375
				C3487.561,2109.321,3487.833,2116.954,3488.105,2124.562z M3478.281,2144.622c2.88-5.823,5.751-11.74,8.628-17.616
				c-0.266-7.467-0.536-14.964-0.805-22.445c-2.47,6.017-4.944,12-7.417,17.998
				C3478.553,2129.918,3478.422,2137.282,3478.281,2144.622z M3468.441,2164.337c2.833-5.679,5.669-11.321,8.502-17.015
				c0.135-7.149,0.264-14.322,0.396-21.487c-2.432,5.917-4.864,11.852-7.301,17.723
				C3469.507,2150.498,3468.974,2157.414,3468.441,2164.337z M3458.628,2183.984c2.764-5.505,5.529-11.051,8.288-16.593
				c0.514-6.665,1.028-13.317,1.539-19.997c-2.366,5.667-4.74,11.27-7.109,16.93
				C3460.445,2170.889,3459.535,2177.438,3458.628,2183.984z M3448.868,2203.38c2.654-5.244,5.306-10.507,7.958-15.785
				c0.863-6.219,1.726-12.426,2.589-18.661c-2.289,5.464-4.581,10.927-6.873,16.365
				C3451.316,2191.322,3450.096,2197.378,3448.868,2203.38z M3439.376,2222.024c2.432-4.775,4.864-9.547,7.296-14.331
				c1.107-5.41,2.207-10.879,3.311-16.304c-2.091,4.971-4.188,9.918-6.287,14.857
				C3442.259,2211.509,3440.816,2216.778,3439.376,2222.024z M3430.473,2239.511c2-3.905,4.001-7.851,6.001-11.791
				c1.168-4.229,2.328-8.499,3.49-12.741c-1.616,3.778-3.232,7.568-4.847,11.351
				C3433.57,2230.751,3432.018,2235.103,3430.473,2239.511z M3424.595,2250.937c0.495-0.961,0.995-1.906,1.492-2.868l1.223-3.485
				C3426.406,2246.7,3425.502,2248.834,3424.595,2250.937z M3511.339,2111.683c3.369-5.921,6.727-11.9,10.087-17.881
				c-1.528-8.475-3.069-16.989-4.6-25.474c-2.948,6.146-5.889,12.313-8.84,18.415
				C3509.105,2095.068,3510.221,2103.372,3511.339,2111.683z M3500.199,2131.103c3.366-5.871,6.735-11.705,10.096-17.595
				c-1.105-8.22-2.209-16.433-3.317-24.665c-2.948,6.09-5.9,12.146-8.851,18.2
				C3498.822,2115.075,3499.509,2123.085,3500.199,2131.103z M3489.018,2150.599c3.358-5.809,6.71-11.683,10.063-17.542
				c-0.684-7.926-1.363-15.843-2.05-23.777c-2.94,6.021-5.883,12.026-8.826,18.021
				C3488.479,2135.082,3488.743,2142.833,3489.018,2150.599z M3477.79,2169.89c3.339-5.727,6.683-11.425,10.019-17.182
				c-0.269-7.654-0.53-15.292-0.802-22.962c-2.927,5.973-5.85,11.978-8.782,17.898
				C3478.084,2155.077,3477.935,2162.478,3477.79,2169.89z M3466.534,2189.108c3.309-5.633,6.617-11.279,9.923-16.943
				c0.143-7.28,0.288-14.542,0.428-21.84c-2.899,5.829-5.803,11.613-8.705,17.426
				C3467.633,2174.877,3467.084,2182.004,3466.534,2189.108z M3455.251,2208.3c3.267-5.517,6.529-11.087,9.794-16.648
				c0.539-6.937,1.074-13.89,1.61-20.844c-2.861,5.735-5.716,11.483-8.579,17.176
				C3457.136,2194.764,3456.194,2201.542,3455.251,2208.3z M3444.004,2227.111c3.179-5.326,6.364-10.626,9.544-15.966
				c0.909-6.507,1.816-13.025,2.723-19.55c-2.786,5.531-5.578,11.019-8.367,16.523
				C3446.604,2214.46,3445.304,2220.792,3444.004,2227.111z M3432.823,2245.809c3.056-5.074,6.109-10.204,9.159-15.319
				c1.242-6.024,2.49-12.018,3.726-18.061c-2.674,5.263-5.345,10.519-8.021,15.759
				C3436.068,2234.067,3434.447,2239.949,3432.823,2245.809z M3421.905,2263.829c2.8-4.615,5.606-9.187,8.403-13.816
				c1.492-5.38,2.99-10.73,4.476-16.129c-2.498,4.909-4.996,9.816-7.502,14.682
				C3425.489,2253.658,3423.7,2258.755,3421.905,2263.829z M3411.752,2280.477c2.3-3.768,4.603-7.547,6.906-11.324
				c1.451-4.1,2.902-8.236,4.35-12.347c-1.984,3.818-3.968,7.644-5.949,11.468
				C3415.291,2272.353,3413.519,2276.412,3411.752,2280.477z M3404.92,2291.672c0.64-1.04,1.281-2.096,1.921-3.144
				c0.497-1.138,0.992-2.288,1.49-3.428C3407.196,2287.288,3406.058,2289.496,3404.92,2291.672z M3514.986,2138.82
				c3.806-5.764,7.609-11.519,11.409-17.325c-1.542-8.573-3.067-17.117-4.611-25.698c-3.383,6.019-6.771,12.024-10.162,17.988
				C3512.743,2122.131,3513.867,2130.483,3514.986,2138.82z M3502.485,2157.643c3.809-5.731,7.617-11.449,11.426-17.205
				l-3.333-24.832c-3.394,5.941-6.79,11.828-10.184,17.75C3501.092,2141.455,3501.787,2149.558,3502.485,2157.643z
				 M3489.922,2176.524c3.814-5.673,7.617-11.431,11.42-17.165c-0.687-8.006-1.379-16.03-2.066-24.052
				c-3.391,5.922-6.779,11.865-10.176,17.734C3489.375,2160.869,3489.652,2168.715,3489.922,2176.524z M3477.295,2195.112
				c3.801-5.605,7.609-11.159,11.407-16.789c-0.267-7.708-0.541-15.447-0.808-23.171c-3.383,5.824-6.768,11.579-10.156,17.378
				C3477.592,2180.059,3477.446,2187.602,3477.295,2195.112z M3464.611,2213.79c3.787-5.541,7.571-11.134,11.354-16.721
				c0.151-7.408,0.297-14.838,0.442-22.264c-3.366,5.764-6.732,11.517-10.104,17.246
				C3465.74,2199.306,3465.174,2206.553,3464.611,2213.79z M3451.899,2232.258c3.751-5.436,7.502-10.855,11.25-16.322
				c0.558-7.102,1.113-14.22,1.665-21.342c-3.339,5.679-6.677,11.347-10.024,16.986
				C3453.828,2218.478,3452.863,2225.378,3451.899,2232.258z M3439.124,2250.65c3.712-5.333,7.425-10.676,11.137-16.041
				c0.945-6.711,1.888-13.453,2.83-20.184c-3.295,5.528-6.592,11.022-9.887,16.531
				C3441.85,2237.542,3440.481,2244.088,3439.124,2250.65z M3426.365,2268.968c3.63-5.162,7.252-10.394,10.876-15.607
				c1.316-6.339,2.63-12.668,3.946-19.026c-3.226,5.402-6.447,10.828-9.678,16.178
				C3429.8,2256.69,3428.08,2262.816,3426.365,2268.968z M3413.845,2286.611c3.435-4.85,6.875-9.671,10.31-14.531
				c1.621-5.808,3.245-11.606,4.861-17.436c-3.053,5.033-6.117,10.013-9.173,15.038
				C3417.844,2275.331,3415.846,2280.986,3413.845,2286.611z M3401.507,2303.99c3.19-4.46,6.375-8.968,9.56-13.469
				c1.844-5.17,3.688-10.325,5.529-15.514c-2.866,4.706-5.729,9.415-8.595,14.091
				C3405.835,2294.054,3403.676,2299.054,3401.507,2303.99z M3389.895,2320.158c2.619-3.639,5.243-7.232,7.862-10.881
				c1.778-4.042,3.553-8.072,5.333-12.129c-2.338,3.798-4.68,7.537-7.018,11.319
				C3394.014,2312.374,3391.956,2316.265,3389.895,2320.158z M3382.162,2330.821l2.352-3.242l1.88-3.556
				C3384.984,2326.284,3383.572,2328.564,3382.162,2330.821z M3518.615,2165.951c4.246-5.602,8.497-11.157,12.737-16.795
				c-1.542-8.601-3.08-17.2-4.627-25.811c-3.822,5.838-7.653,11.611-11.481,17.409L3518.615,2165.951z M3504.752,2184.143
				c4.254-5.568,8.513-11.145,12.767-16.751l-3.35-25.021c-3.833,5.799-7.672,11.564-11.511,17.33L3504.752,2184.143z
				 M3490.801,2202.333c4.268-5.52,8.53-11.096,12.794-16.672c-0.693-8.076-1.382-16.155-2.077-24.242
				c-3.836,5.773-7.675,11.562-11.522,17.281C3490.268,2186.594,3490.532,2194.456,3490.801,2202.333z M3476.776,2220.291
				c4.268-5.464,8.535-10.89,12.797-16.38c-0.267-7.803-0.528-15.594-0.797-23.409c-3.842,5.686-7.686,11.306-11.528,16.97
				C3477.094,2205.092,3476.935,2212.688,3476.776,2220.291z M3462.673,2238.351c4.262-5.408,8.524-10.9,12.781-16.365
				c0.157-7.515,0.311-15.026,0.464-22.559c-3.836,5.659-7.669,11.335-11.511,16.946
				C3463.83,2223.711,3463.253,2231.032,3462.673,2238.351z M3448.524,2256.131c4.234-5.322,8.477-10.586,12.712-15.939
				c0.572-7.219,1.146-14.431,1.712-21.671c-3.812,5.551-7.634,11.035-11.448,16.558
				C3450.511,2242.112,3449.519,2249.121,3448.524,2256.131z M3434.298,2273.914c4.218-5.243,8.431-10.516,12.64-15.802
				c0.976-6.883,1.951-13.771,2.924-20.676c-3.8,5.492-7.601,10.968-11.406,16.425
				C3437.071,2260.539,3435.689,2267.257,3434.298,2273.914z M3420.061,2291.572c4.155-5.117,8.307-10.269,12.456-15.431
				c1.358-6.493,2.707-13.055,4.059-19.571c-3.743,5.366-7.485,10.727-11.231,16.049
				C3423.584,2278.932,3421.825,2285.286,3420.061,2291.572z M3405.852,2308.924c4.059-4.953,8.12-9.891,12.176-14.868
				c1.707-6.074,3.407-12.226,5.111-18.323c-3.63,5.135-7.268,10.239-10.898,15.354
				C3410.114,2297.056,3407.981,2302.981,3405.852,2308.924z M3391.656,2326.257c3.919-4.738,7.834-9.556,11.75-14.35
				c2.02-5.628,4.039-11.256,6.056-16.909c-3.517,4.971-7.037,9.962-10.56,14.881
				C3396.49,2315.366,3394.072,2320.797,3391.656,2326.257z M3378.095,2342.482c3.509-4.2,7.015-8.351,10.522-12.555
				c2.207-4.978,4.41-9.945,6.614-14.945c-3.196,4.424-6.395,8.809-9.593,13.229
				C3383.124,2332.955,3380.609,2337.763,3378.095,2342.482z M3365.114,2357.971c2.965-3.522,5.927-7.067,8.892-10.61
				c2.086-3.904,4.171-7.812,6.254-11.728c-2.611,3.6-5.218,7.214-7.823,10.793
				C3369.997,2350.307,3367.551,2354.108,3365.114,2357.971z M3355.793,2369.092c1.017-1.205,2.036-2.429,3.053-3.645l2.135-3.365
				C3359.253,2364.431,3357.521,2366.747,3355.793,2369.092z M3522.237,2193.059c4.688-5.429,9.387-10.804,14.072-16.275
				c-1.544-8.617-3.1-17.264-4.647-25.892c-4.259,5.663-8.541,11.232-12.805,16.861L3522.237,2193.059z M3507.006,2210.596
				c4.707-5.397,9.412-10.81,14.113-16.25l-3.358-25.154c-4.281,5.64-8.563,11.259-12.847,16.857
				C3505.612,2194.238,3506.31,2202.421,3507.006,2210.596z M3491.678,2228.113c4.721-5.351,9.439-10.758,14.155-16.169
				l-2.075-24.378c-4.295,5.61-8.59,11.211-12.888,16.766C3491.139,2212.259,3491.414,2220.203,3491.678,2228.113z
				 M3476.251,2245.407c4.729-5.305,9.461-10.569,14.188-15.907c-0.264-7.848-0.53-15.726-0.8-23.592
				c-4.298,5.539-8.604,11.015-12.904,16.524C3476.575,2230.099,3476.416,2237.762,3476.251,2245.407z M3460.73,2262.81
				c4.738-5.254,9.467-10.603,14.198-15.921c0.162-7.576,0.324-15.164,0.481-22.762c-4.306,5.525-8.606,11.082-12.921,16.545
				C3461.904,2248.056,3461.319,2255.447,3460.73,2262.81z M3445.142,2279.921c4.724-5.182,9.45-10.304,14.171-15.519
				c0.583-7.282,1.159-14.586,1.739-21.89c-4.289,5.413-8.59,10.727-12.882,16.112
				C3447.164,2265.736,3446.153,2272.831,3445.142,2279.921z M3429.457,2297.058c4.713-5.121,9.428-10.281,14.141-15.449
				c0.997-6.991,1.998-13.988,2.99-21.003c-4.281,5.377-8.573,10.749-12.863,16.079
				C3432.303,2283.492,3430.88,2290.275,3429.457,2297.058z M3413.705,2314.094c4.68-5.029,9.354-10.084,14.034-15.159
				c1.399-6.672,2.806-13.326,4.204-20.023c-4.243,5.268-8.488,10.502-12.737,15.728
				C3417.374,2301.157,3415.538,2307.604,3413.705,2314.094z M3398.018,2330.799c4.589-4.88,9.175-9.747,13.764-14.656
				c1.794-6.354,3.597-12.64,5.391-19.019c-4.202,5.151-8.406,10.275-12.61,15.397
				C3402.378,2318.604,3400.199,2324.743,3398.018,2330.799z M3382.187,2347.65c4.54-4.773,9.074-9.646,13.605-14.484
				c2.113-5.847,4.218-11.784,6.328-17.661c-4.125,5.04-8.252,10.097-12.379,15.077
				C3387.224,2336.267,3384.709,2341.994,3382.187,2347.65z M3366.606,2363.841c4.32-4.495,8.64-8.943,12.957-13.448
				c2.399-5.376,4.79-10.837,7.186-16.24c-3.883,4.646-7.766,9.259-11.646,13.896
				C3372.272,2353.342,3369.439,2358.574,3366.606,2363.841z M3351.33,2379.7c3.99-4.111,7.975-8.265,11.962-12.414
				c2.575-4.783,5.147-9.557,7.719-14.359c-3.699,4.424-7.395,8.862-11.096,13.239
				C3357.054,2370.68,3354.194,2375.21,3351.33,2379.7z M3337.176,2394.239c3.232-3.3,6.463-6.581,9.695-9.905
				c2.314-3.624,4.627-7.309,6.941-10.951c-2.924,3.43-5.848,6.808-8.771,10.231
				C3342.419,2387.146,3339.8,2390.725,3337.176,2394.239z M3327.729,2403.806l2.863-2.898c0.923-1.236,1.849-2.44,2.775-3.677
				C3331.488,2399.419,3329.608,2401.628,3327.729,2403.806z M3525.845,2220.155c5.133-5.25,10.272-10.457,15.399-15.753
				l-4.644-25.977c-4.704,5.49-9.425,10.876-14.138,16.33L3525.845,2220.155z M3509.245,2237.013
				c5.155-5.219,10.31-10.441,15.463-15.703l-3.364-25.266c-4.727,5.465-9.458,10.912-14.188,16.332L3509.245,2237.013z
				 M3492.53,2253.887c5.183-5.177,10.354-10.427,15.531-15.669l-2.077-24.491c-4.746,5.437-9.494,10.861-14.245,16.244
				C3492.007,2237.958,3492.266,2245.917,3492.53,2253.887z M3475.709,2270.489c5.194-5.13,10.39-10.208,15.578-15.374
				c-0.261-7.917-0.522-15.824-0.786-23.758c-4.759,5.376-9.527,10.684-14.295,16.026
				C3476.045,2255.094,3475.877,2262.797,3475.709,2270.489z M3458.771,2287.204c5.21-5.086,10.417-10.268,15.619-15.418
				c0.168-7.629,0.333-15.273,0.498-22.923c-4.776,5.363-9.544,10.767-14.325,16.063
				C3459.967,2272.365,3459.368,2279.787,3458.771,2287.204z M3441.748,2303.647c5.204-5.022,10.417-9.995,15.619-15.058
				c0.591-7.347,1.184-14.702,1.775-22.07c-4.771,5.263-9.549,10.415-14.322,15.648
				C3443.798,2289.335,3442.773,2296.502,3441.748,2303.647z M3424.582,2320.112c5.221-4.978,10.439-9.987,15.652-15.014
				c1.017-7.066,2.031-14.152,3.042-21.243c-4.779,5.241-9.56,10.478-14.342,15.667
				C3427.486,2306.409,3426.032,2313.252,3424.582,2320.112z M3407.352,2336.487c5.196-4.896,10.384-9.835,15.575-14.785
				c1.429-6.763,2.861-13.514,4.287-20.303c-4.751,5.154-9.51,10.267-14.27,15.372
				C3411.081,2323.358,3409.215,2329.927,3407.352,2336.487z M3390.106,2352.573c5.139-4.791,10.283-9.558,15.421-14.384
				c1.833-6.44,3.666-12.902,5.496-19.372c-4.696,5.026-9.392,10.014-14.091,15.003
				C3394.66,2340.112,3392.379,2346.31,3390.106,2352.573z M3372.707,2368.806c5.105-4.705,10.211-9.516,15.317-14.286
				c2.22-6.113,4.443-12.168,6.664-18.307c-4.671,4.973-9.346,9.965-14.023,14.876
				C3378.015,2357.032,3375.358,2362.889,3372.707,2368.806z M3355.551,2384.398c4.91-4.472,9.826-8.877,14.737-13.368
				c2.577-5.743,5.161-11.429,7.738-17.201c-4.553,4.751-9.106,9.45-13.663,14.186
				C3361.426,2373.468,3358.491,2378.972,3355.551,2384.398z M3338.294,2400.055c4.803-4.318,9.599-8.691,14.396-13.058
				c2.789-5.141,5.57-10.372,8.356-15.541c-4.377,4.56-8.755,9.136-13.135,13.638
				C3344.705,2390.109,3341.501,2395.069,3338.294,2400.055z M3321.441,2415.143c4.386-3.905,8.769-7.791,13.152-11.727
				c2.954-4.588,5.914-9.109,8.868-13.722c-3.96,4.039-7.92,8.003-11.879,12.029
				C3328.204,2406.232,3324.821,2410.661,3321.441,2415.143z M3305.929,2428.838c3.564-3.142,7.128-6.289,10.689-9.438
				c2.709-3.584,5.419-7.156,8.128-10.756c-3.306,3.351-6.612,6.715-9.917,10.04
				C3311.865,2422.094,3308.894,2425.448,3305.929,2428.838z M3295.103,2438.395c1.099-0.962,2.201-1.94,3.297-2.909l2.281-2.603
				C3298.82,2434.737,3296.96,2436.549,3295.103,2438.395z M3529.442,2247.236c5.573-5.059,11.148-10.108,16.716-15.227
				c-1.547-8.684-3.086-17.348-4.636-26.046c-5.15,5.312-10.31,10.528-15.463,15.797
				C3527.192,2230.262,3528.313,2238.75,3529.442,2247.236z M3511.471,2263.405c5.606-5.036,11.214-10.055,16.817-15.13
				l-3.366-25.359c-5.174,5.284-10.357,10.537-15.537,15.776C3510.086,2246.94,3510.778,2255.172,3511.471,2263.405z
				 M3493.381,2279.639c5.636-4.99,11.264-10.094,16.891-15.157l-2.072-24.585c-5.202,5.263-10.404,10.528-15.611,15.729
				C3492.854,2263.633,3493.12,2271.649,3493.381,2279.639z M3475.152,2295.535c5.658-4.951,11.324-9.823,16.979-14.806
				c-0.258-7.946-0.525-15.915-0.786-23.877c-5.221,5.195-10.45,10.309-15.677,15.47
				C3475.501,2280.072,3475.328,2287.803,3475.152,2295.535z M3456.798,2311.537c5.683-4.907,11.36-9.89,17.04-14.858
				c0.173-7.679,0.346-15.358,0.514-23.058c-5.243,5.187-10.489,10.412-15.737,15.534
				C3458.01,2296.628,3457.403,2304.086,3456.798,2311.537z M3438.332,2327.328c5.691-4.848,11.387-9.679,17.073-14.576
				c0.602-7.396,1.206-14.794,1.805-22.214c-5.249,5.103-10.505,10.097-15.759,15.161
				C3440.412,2312.92,3439.376,2320.133,3438.332,2327.328z M3419.734,2343.052c5.705-4.802,11.412-9.615,17.114-14.467
				c1.033-7.126,2.061-14.281,3.091-21.433c-5.276,5.081-10.549,10.153-15.825,15.181
				C3422.653,2329.232,3421.196,2336.176,3419.734,2343.052z M3401.024,2358.77c5.702-4.738,11.401-9.556,17.103-14.359
				c1.446-6.798,2.885-13.669,4.328-20.491c-5.254,5.006-10.514,9.985-15.773,14.937
				C3404.794,2345.489,3402.912,2352.167,3401.024,2358.77z M3382.244,2374.162c5.672-4.651,11.346-9.26,17.021-13.948
				c1.863-6.521,3.726-13.103,5.589-19.654c-5.235,4.914-10.472,9.779-15.71,14.655
				C3386.847,2361.539,3384.544,2367.868,3382.244,2374.162z M3363.309,2389.688c5.661-4.583,11.319-9.265,16.974-13.916
				c2.261-6.179,4.518-12.404,6.779-18.614c-5.229,4.881-10.456,9.795-15.688,14.605
				C3368.686,2377.75,3365.999,2383.736,3363.309,2389.688z M3344.441,2404.776c5.542-4.426,11.085-8.787,16.622-13.248
				c2.641-5.839,5.276-11.723,7.917-17.592c-5.078,4.636-10.156,9.206-15.234,13.82
				C3350.646,2393.472,3347.541,2399.097,3344.441,2404.776z M3325.519,2419.823c5.444-4.292,10.882-8.634,16.323-12.977
				c3.001-5.493,6.004-10.933,9.005-16.456c-5.081,4.621-10.156,9.259-15.237,13.821
				C3332.246,2409.431,3328.885,2414.638,3325.519,2419.823z M3306.792,2434.532c5.191-4.047,10.385-8.106,15.578-12.201
				c3.179-4.896,6.359-9.832,9.535-14.758c-4.768,4.257-9.541,8.431-14.314,12.666
				C3313.994,2425,3310.392,2429.802,3306.792,2434.532z M3288.689,2448.505c4.751-3.661,9.502-7.322,14.253-11.002
				c3.276-4.297,6.554-8.684,9.827-13.008c-4.474,3.961-8.947,7.927-13.424,11.85
				C3295.792,2440.388,3292.239,2444.488,3288.689,2448.505z M3271.286,2461.93c4.007-3.048,8.01-6.167,12.014-9.27
				c2.839-3.2,5.677-6.45,8.519-9.668c-3.666,3.202-7.331,6.338-10.997,9.515C3277.645,2455.636,3274.466,2458.819,3271.286,2461.93
				z M3259.786,2470.588c1.162-0.88,2.328-1.744,3.49-2.615c1.206-1.177,2.413-2.319,3.622-3.497
				C3264.524,2466.506,3262.155,2468.561,3259.786,2470.588z M3533.026,2274.311c6.018-4.868,12.033-9.771,18.043-14.714
				c-1.544-8.688-3.094-17.393-4.644-26.094c-5.589,5.134-11.184,10.189-16.782,15.267
				C3530.772,2257.286,3531.905,2265.806,3533.026,2274.311z M3513.688,2289.769c6.056-4.843,12.118-9.643,18.172-14.526
				c-1.121-8.467-2.248-16.954-3.372-25.437c-5.625,5.096-11.253,10.138-16.883,15.192
				C3512.301,2273.259,3512.996,2281.525,3513.688,2289.769z M3494.208,2305.343c6.098-4.802,12.181-9.729,18.271-14.608
				c-0.684-8.208-1.38-16.435-2.072-24.66c-5.658,5.084-11.313,10.196-16.974,15.208
				C3493.695,2289.316,3493.95,2297.326,3494.208,2305.343z M3474.586,2320.552c6.12-4.754,12.253-9.411,18.373-14.208
				c-0.258-7.987-0.514-15.969-0.772-23.973c-5.688,5.011-11.385,9.914-17.073,14.885
				C3474.937,2305.025,3474.764,2312.803,3474.586,2320.552z M3454.812,2335.828c6.158-4.717,12.311-9.487,18.46-14.263
				c0.181-7.701,0.354-15.438,0.528-23.161c-5.716,4.998-11.431,10.018-17.15,14.954
				C3456.037,2320.85,3455.427,2328.353,3454.812,2335.828z M3434.897,2350.983c6.177-4.669,12.357-9.363,18.535-14.089
				c0.613-7.425,1.217-14.875,1.825-22.326c-5.729,4.93-11.464,9.775-17.197,14.656
				C3437.01,2336.495,3435.95,2343.738,3434.897,2350.983z M3414.84,2365.957c6.199-4.615,12.396-9.217,18.59-13.88
				c1.05-7.192,2.102-14.38,3.146-21.596c-5.754,4.893-11.514,9.756-17.271,14.598
				C3417.819,2352.059,3416.33,2359.003,3414.84,2365.957z M3394.599,2381.058c6.224-4.572,12.443-9.277,18.667-13.925
				c1.478-6.897,2.957-13.772,4.432-20.695c-5.765,4.846-11.528,9.695-17.293,14.48
				C3398.471,2367.667,3396.534,2374.338,3394.599,2381.058z M3374.369,2395.661c6.177-4.472,12.357-8.871,18.529-13.379
				c1.915-6.643,3.833-13.244,5.743-19.919c-5.746,4.749-11.497,9.429-17.249,14.14
				C3379.054,2382.903,3376.713,2389.294,3374.369,2395.661z M3353.911,2410.432c6.194-4.421,12.385-8.926,18.576-13.411
				c2.317-6.291,4.63-12.588,6.944-18.909c-5.762,4.733-11.528,9.513-17.293,14.177
				C3359.396,2398.352,3356.656,2404.401,3353.911,2410.432z M3333.428,2424.905c6.122-4.307,12.245-8.587,18.362-12.942
				c2.709-5.944,5.416-11.887,8.12-17.861c-5.677,4.559-11.36,9.013-17.034,13.542
				C3339.726,2413.405,3336.58,2419.177,3333.428,2424.905z M3312.915,2439.227c6.045-4.196,12.091-8.416,18.136-12.661
				c3.075-5.587,6.147-11.231,9.219-16.85c-5.633,4.497-11.267,9.002-16.903,13.441
				C3319.883,2428.522,3316.402,2433.895,3312.915,2439.227z M3292.225,2453.54c5.947-4.07,11.896-8.193,17.842-12.324
				c3.383-5.171,6.765-10.349,10.148-15.553c-5.438,4.269-10.879,8.473-16.32,12.705
				C3300.008,2443.468,3296.116,2448.474,3292.225,2453.54z M3271.97,2467.22c5.628-3.797,11.258-7.581,16.886-11.404
				c3.704-4.817,7.408-9.57,11.113-14.418c-5.251,4.067-10.5,8.124-15.751,12.153
				C3280.135,2458.153,3276.051,2462.655,3271.97,2467.22z M3251.705,2480.904c5.306-3.528,10.612-7.15,15.916-10.747
				c3.677-4.105,7.356-8.178,11.033-12.312c-4.831,3.706-9.659,7.383-14.487,11.04
				C3260.011,2472.932,3255.859,2476.891,3251.705,2480.904z M3233.571,2492.808c4.094-2.692,8.189-5.34,12.281-8.027
				c3.366-3.244,6.735-6.476,10.101-9.743c-3.649,2.728-7.299,5.47-10.948,8.199
				C3241.194,2486.466,3237.382,2489.6,3233.571,2492.808z M3222.442,2500.078l2.11-1.377l1.621-1.356
				C3224.929,2498.267,3223.687,2499.162,3222.442,2500.078z M3536.598,2301.388c6.466-4.672,12.924-9.447,19.378-14.212
				c-1.539-8.693-3.105-17.433-4.652-26.136c-6.029,4.955-12.063,9.862-18.103,14.746
				C3534.353,2284.331,3535.474,2292.855,3536.598,2301.388z M3515.887,2316.131c6.51-4.644,13.025-9.217,19.532-13.903
				c-1.118-8.501-2.237-16.996-3.366-25.51c-6.073,4.897-12.159,9.719-18.235,14.581
				C3514.51,2299.589,3515.197,2307.854,3515.887,2316.131z M3495.027,2330.977c6.554-4.599,13.097-9.306,19.645-13.981
				c-0.687-8.245-1.371-16.474-2.064-24.734c-6.117,4.901-12.228,9.851-18.351,14.669
				C3494.516,2314.951,3494.772,2322.977,3495.027,2330.977z M3473.995,2345.564c6.595-4.558,13.19-9.08,19.777-13.692
				c-0.25-7.97-0.508-15.958-0.764-23.946c-6.147,4.816-12.308,9.486-18.458,14.26
				C3474.368,2329.999,3474.182,2337.773,3473.995,2345.564z M3452.803,2360.095c6.631-4.518,13.259-9.057,19.881-13.633
				c0.187-7.752,0.371-15.489,0.552-23.262c-6.186,4.802-12.374,9.604-18.568,14.344
				C3454.053,2345.074,3453.429,2352.585,3452.803,2360.095z M3431.438,2374.613c6.672-4.472,13.333-9.034,19.997-13.58
				c0.621-7.465,1.239-14.937,1.858-22.425c-6.219,4.751-12.434,9.459-18.656,14.151
				C3433.573,2360.059,3432.507,2367.34,3431.438,2374.613z M3409.916,2388.831c6.694-4.42,13.388-8.794,20.079-13.263
				c1.061-7.228,2.119-14.463,3.177-21.718c-6.243,4.701-12.492,9.347-18.738,13.996
				C3412.93,2374.866,3411.425,2381.839,3409.916,2388.831z M3388.227,2403.16c6.719-4.369,13.432-8.865,20.15-13.311
				c1.495-6.937,2.99-13.863,4.485-20.827c-6.279,4.678-12.552,9.402-18.834,14.008
				C3392.096,2389.744,3390.161,2396.477,3388.227,2403.16z M3366.433,2417.122c6.708-4.299,13.424-8.52,20.131-12.864
				c1.924-6.638,3.844-13.333,5.765-20.002c-6.246,4.561-12.5,9.018-18.746,13.538
				C3371.198,2404.263,3368.815,2410.684,3366.433,2417.122z M3344.458,2431.107c6.721-4.239,13.443-8.537,20.167-12.839
				c2.358-6.361,4.718-12.72,7.076-19.116c-6.287,4.551-12.569,9.132-18.856,13.613
				C3350.047,2418.904,3347.252,2425.002,3344.458,2431.107z M3322.378,2444.929c6.694-4.151,13.383-8.332,20.074-12.544
				c2.756-6.018,5.515-12.037,8.271-18.089c-6.219,4.416-12.443,8.734-18.661,13.107
				C3328.836,2433.264,3325.607,2439.102,3322.378,2444.929z M3300.214,2458.525c6.642-4.058,13.283-8.117,19.925-12.223
				c3.182-5.738,6.364-11.464,9.544-17.239c-6.216,4.363-12.432,8.717-18.647,13.022
				C3307.43,2447.594,3303.822,2453.052,3300.214,2458.525z M3277.854,2472.192c6.592-3.967,13.185-8.042,19.777-12.084
				c3.52-5.332,7.037-10.666,10.555-16.035c-6.136,4.246-12.272,8.456-18.408,12.646
				C3285.801,2461.886,3281.827,2467.063,3277.854,2472.192z M3255.873,2485.185c6.334-3.754,12.674-7.46,19.007-11.24
				c3.844-4.95,7.683-9.964,11.525-14.949c-5.966,4.052-11.931,8.074-17.897,12.089
				C3264.295,2475.784,3260.083,2480.521,3255.873,2485.185z M3233.662,2498.313c6.186-3.606,12.371-7.299,18.56-10.971
				c3.979-4.398,7.961-8.892,11.94-13.323c-5.823,3.927-11.64,7.859-17.46,11.717
				C3242.356,2489.923,3238.009,2494.159,3233.662,2498.313z M3212.299,2510.609c5.54-3.183,11.08-6.291,16.622-9.492
				c4.026-3.843,8.06-7.793,12.088-11.666c-5.218,3.419-10.437,6.823-15.655,10.231
				C3221.005,2503.323,3216.649,2506.999,3212.299,2510.609z M3192.283,2522.013c4.608-2.607,9.211-5.244,13.819-7.874
				c3.41-2.82,6.82-5.724,10.233-8.563c-4.765,3.129-9.532,6.276-14.297,9.342
				C3198.788,2517.283,3195.537,2519.664,3192.283,2522.013z M3177.662,2530.344c1.572-0.88,3.144-1.788,4.715-2.685
				c1.033-0.744,2.072-1.515,3.108-2.262C3182.877,2527.038,3180.27,2528.694,3177.662,2530.344z M3540.162,2328.447
				c6.906-4.469,13.797-9.097,20.689-13.674c-1.544-8.746-3.072-17.444-4.625-26.2c-6.477,4.778-12.954,9.556-19.442,14.24
				C3537.911,2311.359,3539.043,2319.916,3540.162,2328.447z M3518.08,2342.48c6.963-4.439,13.938-8.774,20.895-13.258
				c-1.118-8.51-2.245-17.047-3.369-25.569c-6.526,4.698-13.064,9.291-19.598,13.946
				C3516.7,2325.895,3517.396,2334.203,3518.08,2342.48z M3495.83,2356.602c7.013-4.402,14.02-8.876,21.027-13.344
				c-0.684-8.25-1.377-16.525-2.061-24.789c-6.573,4.69-13.146,9.417-19.725,14.034
				C3495.327,2340.548,3495.577,2348.573,3495.83,2356.602z M3473.398,2370.567c7.06-4.355,14.116-8.746,21.17-13.167
				c-0.25-7.995-0.497-15.99-0.75-24.004c-6.614,4.627-13.24,9.154-19.859,13.73
				C3473.772,2354.946,3473.588,2362.768,3473.398,2370.567z M3450.78,2384.34c7.106-4.312,14.209-8.607,21.31-12.977
				c0.189-7.764,0.374-15.553,0.558-23.339c-6.658,4.597-13.316,9.163-19.977,13.7
				C3452.044,2369.278,3451.412,2376.811,3450.78,2384.34z M3427.964,2398.232c7.156-4.27,14.303-8.705,21.456-13.061
				c0.626-7.493,1.256-14.99,1.877-22.508c-6.697,4.565-13.399,9.138-20.104,13.632
				C3430.116,2383.616,3429.042,2390.938,3427.964,2398.232z M3405.003,2411.654c7.178-4.21,14.358-8.33,21.533-12.588
				c1.072-7.256,2.141-14.537,3.212-21.818c-6.735,4.497-13.476,8.903-20.211,13.35
				C3408.025,2397.613,3406.517,2404.671,3405.003,2411.654z M3381.816,2425.211c7.227-4.168,14.451-8.429,21.673-12.671
				c1.506-6.94,3.003-13.957,4.506-20.924c-6.768,4.481-13.536,9.016-20.31,13.418
				C3385.729,2411.779,3383.772,2418.498,3381.816,2425.211z M3358.524,2438.498c7.224-4.094,14.446-8.183,21.667-12.337
				c1.943-6.669,3.888-13.33,5.834-20.03c-6.771,4.377-13.547,8.619-20.321,12.95
				C3363.311,2425.543,3360.921,2432.068,3358.524,2438.498z M3335.041,2451.672c7.249-4.039,14.495-8.097,21.739-12.195
				c2.377-6.373,4.748-12.843,7.123-19.248c-6.807,4.352-13.608,8.707-20.414,12.992
				C3340.671,2439.364,3337.86,2445.566,3335.041,2451.672z M3311.271,2464.886c7.282-3.988,14.564-8.07,21.846-12.133
				c2.792-6.05,5.578-12.173,8.367-18.254c-6.785,4.263-13.572,8.473-20.357,12.678
				C3317.844,2453.102,3314.558,2458.997,3311.271,2464.886z M3287.645,2477.613c7.172-3.862,14.347-7.685,21.519-11.591
				c3.242-5.806,6.482-11.63,9.725-17.47c-6.771,4.183-13.539,8.326-20.307,12.455
				C3294.935,2466.533,3291.288,2472.123,3287.645,2477.613z M3263.515,2490.606c7.235-3.827,14.47-7.783,21.706-11.691
				c3.594-5.402,7.186-10.883,10.777-16.323c-6.738,4.115-13.479,8.242-20.219,12.287
				C3271.69,2480.148,3267.604,2485.376,3263.515,2490.606z M3239.68,2502.978c7.007-3.638,14.014-7.19,21.021-10.866
				c4.037-5.156,8.073-10.283,12.107-15.477c-6.573,3.918-13.149,7.778-19.725,11.66
				C3248.616,2493.235,3244.148,2498.079,3239.68,2502.978z M3215.608,2515.419c6.927-3.535,13.855-7.143,20.785-10.742
				c4.336-4.745,8.664-9.418,13-14.199c-6.551,3.886-13.099,7.81-19.648,11.613
				C3225.033,2506.588,3220.321,2510.963,3215.608,2515.419z M3191.866,2527.413c6.543-3.279,13.086-6.543,19.631-9.867
				c4.501-4.25,9.002-8.445,13.509-12.731c-6.043,3.468-12.085,6.875-18.125,10.328
				C3201.874,2519.283,3196.873,2523.313,3191.866,2527.413z M3168.83,2538.837c5.971-2.943,11.942-5.909,17.914-8.886
				c4.529-3.699,9.057-7.344,13.589-11.078c-5.746,3.289-11.495,6.594-17.24,9.824
				C3178.338,2532.114,3173.584,2535.454,3168.83,2538.837z M3146.992,2549.62c4.836-2.346,9.673-4.744,14.509-7.146
				c3.773-2.674,7.543-5.302,11.319-7.996c-4.292,2.379-8.584,4.7-12.88,7.073
				C3155.624,2544.249,3151.309,2546.946,3146.992,2549.62z M3133.945,2555.831c0.739-0.355,1.479-0.704,2.218-1.054
				c0.863-0.53,1.723-1.053,2.586-1.583C3137.146,2554.066,3135.544,2554.961,3133.945,2555.831z M3468.782,1790.811l-3.116-13.738
				l1.726,12.446l2.52,13.704L3468.782,1790.811z M3475.204,1819.194l-4.273-18.89l1.533,16.886l3.416,18.692L3475.204,1819.194z
				 M3481.617,1847.533l-4.844-21.419c0.253,6.262,0.5,12.503,0.753,18.755l3.858,21.104
				C3481.461,1859.829,3481.541,1853.688,3481.617,1847.533z M3488.02,1875.9l-5.183-22.959c-0.08,6.548-0.165,13.091-0.247,19.628
				c1.368,7.5,2.748,15.015,4.116,22.51C3487.144,1888.684,3487.583,1882.306,3488.02,1875.9z M3494.406,1904.239l-5.394-23.942
				c-0.453,6.651-0.91,13.283-1.368,19.92c1.434,7.858,2.85,15.69,4.281,23.539
				C3492.752,1917.259,3493.582,1910.757,3494.406,1904.239z M3500.784,1932.572l-5.545-24.637
				c-0.849,6.688-1.698,13.368-2.55,20.037l4.383,24.106C3498.311,1945.584,3499.553,1939.105,3500.784,1932.572z
				 M3507.132,1960.831l-5.63-25.077c-1.259,6.655-2.525,13.241-3.789,19.854c1.495,8.216,2.992,16.445,4.482,24.654
				C3503.843,1973.795,3505.486,1967.31,3507.132,1960.831z M3513.496,1989.187c-1.91-8.52-3.825-17.046-5.738-25.57
				c-1.671,6.566-3.336,13.151-5.01,19.702l4.537,25.022C3509.361,2001.982,3511.427,1995.583,3513.496,1989.187z M3519.83,2017.479
				c-1.924-8.599-3.844-17.196-5.773-25.801c-2.097,6.465-4.19,12.913-6.29,19.341c1.533,8.456,3.05,16.892,4.578,25.342
				C3514.845,2030.104,3517.332,2023.765,3519.83,2017.479z M3526.18,2045.856c-1.945-8.706-3.896-17.42-5.847-26.134
				c-2.517,6.339-5.031,12.742-7.554,19.05c1.533,8.48,3.067,16.961,4.592,25.432
				C3520.308,2058.087,3523.249,2052.014,3526.18,2045.856z M3532.481,2074.108c-1.948-8.737-3.894-17.47-5.845-26.214
				c-2.954,6.201-5.916,12.318-8.873,18.481c1.542,8.554,3.1,17.138,4.638,25.688
				C3525.763,2086.083,3529.124,2080.11,3532.481,2074.108z M3538.788,2102.396c-1.957-8.796-3.921-17.599-5.883-26.402
				c-3.38,6.036-6.76,12.051-10.14,18.063c1.552,8.644,3.089,17.244,4.641,25.882
				C3531.204,2114.119,3534.993,2108.246,3538.788,2102.396z M3545.083,2130.692c-1.968-8.844-3.932-17.686-5.903-26.538
				c-3.814,5.879-7.625,11.789-11.445,17.634c1.555,8.663,3.105,17.314,4.658,25.97
				C3536.628,2142.114,3540.852,2136.378,3545.083,2130.692z M3551.365,2158.979c-1.97-8.871-3.943-17.75-5.916-26.63
				c-4.246,5.709-8.491,11.477-12.745,17.143c1.555,8.677,3.119,17.369,4.669,26.033
				C3542.042,2170.059,3546.699,2164.49,3551.365,2158.979z M3557.63,2187.265l-5.919-26.709
				c-4.682,5.528-9.357,11.124-14.045,16.609l4.663,26.098C3547.436,2197.976,3552.53,2192.597,3557.63,2187.265z M3563.89,2215.545
				l-5.924-26.776c-5.119,5.349-10.231,10.756-15.355,16.057c1.558,8.735,3.1,17.433,4.655,26.156
				C3552.808,2225.875,3558.348,2220.696,3563.89,2215.545z M3570.134,2243.824c-1.97-8.938-3.949-17.887-5.925-26.834
				c-5.562,5.164-11.115,10.365-16.677,15.484c1.555,8.734,3.111,17.469,4.66,26.194
				C3558.177,2253.744,3564.157,2248.789,3570.134,2243.824z M3576.366,2272.11c-1.973-8.959-3.946-17.919-5.925-26.888
				c-5.996,4.977-11.992,9.951-17.99,14.887c1.552,8.732,3.122,17.503,4.666,26.224
				C3563.533,2281.597,3569.955,2276.881,3576.366,2272.11z M3582.593,2300.401c-1.97-8.97-3.951-17.953-5.927-26.933
				c-6.43,4.784-12.863,9.517-19.299,14.263c1.555,8.78,3.089,17.508,4.641,26.277
				C3568.867,2309.462,3575.737,2304.987,3582.593,2300.401z M3051.277,0c125.577,527.227,265.262,1115.927,399.086,1703.962
				C3347.335,1145.27,3238.514,580.404,3138.273,60.061L3126.704,0h1.294l11.541,59.897
				c102.025,529.608,212.922,1105.317,317.569,1673.718l3.201,14.108C3379.057,1161.929,3290.373,561.086,3207.114,0h1.286
				c83.954,565.762,173.421,1171.931,255.224,1762.31l4.29,18.907C3414.582,1194.396,3352.759,583.756,3291.022,0h1.289
				c62.07,586.909,124.225,1200.975,177.749,1790.682c1.618,7.16,3.24,14.32,4.858,21.48
				C3451.091,1226.243,3417.709,607.122,3378.249,0h1.289c39.611,609.501,73.103,1231.112,96.947,1819.081
				c1.734,7.66,3.468,15.319,5.199,22.979c6.947-572.045,3.652-1185.627-12.115-1804.534c-0.322-12.597-0.445-25.085-0.481-37.525
				h1.292c0.036,12.448,0.159,24.944,0.478,37.548c15.817,620.841,19.082,1236.328,12.047,1809.918
				c1.808,7.996,3.611,15.989,5.413,23.983c37.773-557.543,64.661-1164.879,72.663-1794.985c0.327-25.827,1.259-51.292,2.674-76.464
				h1.292c-1.415,25.191-2.35,50.678-2.677,76.527c-8.024,631.718-35.028,1240.579-72.955,1799.327l5.562,24.674
				c68.624-542.943,125.72-1143.923,157.516-1785.128c1.946-39.233,5.053-77.687,9.26-115.399h1.302
				c-4.215,37.747-7.329,76.238-9.274,115.508c-31.868,642.607-89.143,1244.826-157.973,1788.723l5.666,25.171
				c99.497-528.279,186.826-1122.806,242.433-1775.062c4.507-52.842,10.934-104.26,19.128-154.339h1.308
				c-8.208,50.125-14.646,101.588-19.156,154.484c-55.711,653.501-143.263,1249.069-242.993,1778.112l5.732,25.511
				c130.378-513.571,247.967-1101.551,327.393-1764.828c7.983-66.653,18.716-131.03,31.947-193.279h1.322
				c-13.253,62.306-24.003,126.741-31.994,193.462c-79.558,664.391-197.405,1253.236-328.044,1767.428
				c1.94,8.638,3.88,17.275,5.815,25.906c161.27-498.823,309.114-1080.309,412.366-1754.578
				c12.352-80.663,28.29-158.008,47.487-232.218h1.336c-19.227,74.277-35.185,151.693-47.55,232.438
				c-103.41,675.28-251.531,1257.516-413.081,1756.847c1.948,8.703,3.896,17.397,5.839,26.092
				c192.176-484.054,370.291-1058.967,497.382-1744.216c17.601-94.887,39.584-185.201,65.56-271.162h1.355
				c-26.017,86.033-48.028,176.433-65.645,271.414c-127.264,686.175-305.681,1261.728-498.146,1746.207
				c1.968,8.795,3.941,17.594,5.9,26.383c223.082-469.259,431.459-1037.69,582.391-1733.899
				C4133.166,200.75,4162.049,97.512,4195.527,0h1.368c-33.527,97.592-62.444,200.924-86.175,310.389
				c-151.119,697.062-359.813,1266.037-583.194,1735.651c1.968,8.807,3.927,17.605,5.889,26.408
				c254.001-454.456,492.675-1016.227,667.459-1723.4C4231.533,224.999,4268.031,108.838,4309.629,0h1.385
				c-41.656,108.924-78.198,225.19-108.889,349.363c-174.977,707.964-413.98,1270.217-668.289,1724.97
				c1.976,8.855,3.954,17.715,5.925,26.567c284.918-439.633,553.893-994.782,752.529-1712.906
				C4330.733,249.015,4375.519,119.932,4425.77,0h1.401c-50.317,120.022-95.155,249.218-133.637,388.333
				c-198.84,718.861-468.147,1274.441-753.381,1714.326c1.981,8.9,3.954,17.791,5.933,26.683
				c315.846-424.8,615.122-973.332,837.618-1702.405C4430.749,272.785,4484.455,130.787,4543.81,0h1.42
				c-59.432,130.882-113.198,273.004-160.286,427.307C4162.236,1157.07,3862.622,1705.985,3546.452,2131
				c1.984,8.923,3.968,17.844,5.944,26.757c346.779-409.957,676.365-951.861,922.724-1691.875
				C4531.581,296.29,4594.822,141.411,4663.668,0h1.44c-68.929,141.512-132.241,296.518-188.757,466.281
				c-246.577,740.663-576.5,1282.912-923.606,1693.052c1.984,8.948,3.965,17.887,5.947,26.827
				c377.718-395.107,737.619-930.375,1007.846-1681.329C4633.219,319.522,4706.552,151.794,4785.206,0h1.459
				c-78.747,151.897-152.16,319.761-218.907,505.25c-270.445,751.567-630.689,1287.148-1008.734,1682.413
				c1.987,8.964,3.968,17.923,5.947,26.878c408.662-380.245,798.883-908.871,1092.982-1670.764
				C4735.653,342.485,4819.58,161.921,4908.291,0h1.473c-88.81,162.024-172.825,342.734-250.602,544.222
				c-294.321,762.474-684.883,1291.38-1093.873,1671.763c1.984,8.98,3.971,17.958,5.947,26.926
				c439.612-365.377,860.157-887.358,1178.129-1660.186C4828.934,389.338,4912.836,215.063,5000,58.067v2.662
				c-86.732,156.42-170.231,329.966-249.429,522.463c-318.198,773.382-739.089,1295.624-1179.028,1661.12
				c1.987,8.997,3.968,17.983,5.947,26.973c470.562-350.504,921.441-865.848,1263.293-1649.613
				c52.001-119.224,105.144-231.18,159.217-336.328v2.805c-53.662,104.472-106.402,215.665-158.022,334.014
				c-342.083,784.292-793.3,1299.874-1264.192,1650.479c1.981,9.007,3.965,18.015,5.944,27.009
				c501.526-335.62,982.736-844.332,1348.468-1639.026c22.495-48.877,45.099-96.517,67.802-142.99v2.917
				c-22.305,45.704-44.516,92.547-66.618,140.577c-365.965,795.203-847.514,1304.135-1349.361,1639.846
				c45.876,208.795,90.115,414.77,131.79,615.027h-1.3c-41.623-200.014-85.809-405.734-131.628-614.273
				c-6.873,4.595-13.759,9.082-20.637,13.643c36.187,204.563,70.825,405.651,103.168,600.631h-1.286
				c-32.305-194.736-66.896-395.567-103.036-599.868c-6.914,4.591-13.819,9.235-20.747,13.713
				c26.32,200.325,51.186,396.504,74.035,586.155h-1.292c-22.822-189.42-47.652-385.341-73.933-585.394
				c-6.98,4.497-13.976,8.847-20.958,13.3c16.268,196.254,31.175,387.656,44.368,572.094h-1.289
				c-13.176-184.197-28.064-375.339-44.302-571.317c-7.032,4.481-14.064,8.976-21.101,13.387
				c5.971,192.176,10.692,378.762,14.014,557.93h-1.281c-3.322-178.917-8.032-365.234-13.995-557.131
				c-7.082,4.435-14.163,8.83-21.25,13.199c-4.583,188.205-10.316,370.024-17.106,543.931h-1.289
				c6.776-173.659,12.503-355.214,17.084-543.135c-7.131,4.387-14.264,8.708-21.401,13.036
				c-7.766,92.602-15.787,183.401-24.031,272.197c-8.167,87.959-16.545,173.974-25.094,257.903h-1.294
				c8.554-83.979,16.938-170.044,25.11-258.057c8.214-88.482,16.207-178.95,23.946-271.212c-7.186,4.372-14.369,8.814-21.56,13.102
				c-1.281,8.632-2.555,17.257-3.836,25.854c-25.492,171.111-51.79,334.781-78.343,490.313h-1.311
				c26.567-155.597,52.878-319.338,78.382-490.531c1.228-8.245,2.454-16.521,3.677-24.802c-7.213,4.281-14.438,8.431-21.656,12.659
				c-38.364,176.867-77.522,344.555-116.52,502.674h-1.327c38.938-157.851,78.03-325.244,116.339-501.787
				c-7.279,4.27-14.553,8.566-21.832,12.761c-50.537,173.262-101.728,336.251-152.271,489.026h-1.36
				c50.455-152.492,101.552-315.166,152.007-488.076c-7.277,4.182-14.553,8.276-21.832,12.399
				c-63.342,169.868-127.188,328.236-189.835,475.677h-1.407c62.529-147.151,126.259-305.195,189.491-474.694
				c-7.318,4.139-14.638,8.247-21.959,12.32c-76.878,166.609-154.095,320.348-229.473,462.374h-1.459
				c75.222-141.713,152.281-295.095,229.009-461.292c-7.359,4.096-14.715,8.193-22.074,12.216
				c-91.294,163.49-182.742,312.572-271.61,449.076h-1.533c88.675-136.182,179.928-284.889,271.038-447.94
				c-7.293,3.971-14.592,7.866-21.885,11.786c-106.875,160.731-213.698,305.221-317.058,436.155h-1.635
				c103.096-130.573,209.653-274.635,316.269-434.85c-7.384,3.982-14.767,8.03-22.151,11.925
				c-123.741,158.073-247.192,297.819-366.108,422.924h-1.756c118.592-124.724,241.702-264.007,365.122-421.507
				c-7.202,3.767-14.405,7.434-21.604,11.168c-142.532,156.019-284.492,291.132-420.58,410.339h-1.921
				c135.64-118.763,277.128-253.326,419.212-408.641c-7.216,3.749-14.432,7.518-21.648,11.19
				c-163.526,154.279-326.131,284.539-481.155,397.451h-2.138c154.381-112.377,316.302-241.954,479.18-395.326
				c-6.897,3.483-13.792,6.865-20.689,10.311c-187.79,153.374-374.234,278.723-550.796,385.015h-2.418
				c175.685-105.685,361.192-230.226,548.092-382.475c-6.727,3.354-13.454,6.711-20.181,10.009
				c-216.399,153.359-430.896,273.439-632.288,372.466h-2.808c199.947-98.215,412.861-217.164,627.765-368.831
				c-6.012,2.932-12.022,5.788-18.035,8.679c-251.688,154.941-500.709,269.26-731.788,360.151h-3.385
				c228.731-89.843,475.132-202.603,724.344-354.995c-4.781,2.276-9.563,4.569-14.339,6.825
				c-297.949,159.305-592.094,266.804-860.267,348.17h-4.229c262.119-79.368,549.202-183.645,840.479-336.868
				c-364.982,169.353-724.247,267.431-1041.86,336.868h-5.743c325.813-71.025,695.826-172.053,1071.021-349.271
				c16.053-8.582,32.118-17.357,48.188-26.222c14.023-8.768,28.048-17.584,42.084-26.626c14.273-10.38,28.551-20.917,42.832-31.584
				c11.915-10.092,23.83-20.332,35.745-30.668c11.324-11.153,22.648-22.396,33.973-33.788c10.052-11.549,20.104-23.252,30.15-35.004
				c9.104-12.261,18.21-24.595,27.306-37.066c7.873-12.529,15.743-25.19,23.607-37.91c6.988-13.28,13.973-26.677,20.95-40.126
				c6.012-13.866,12.017-27.829,18.015-41.848c4.924-14.104,9.838-28.335,14.751-42.594c3.996-14.704,7.98-29.532,11.962-44.365
				c3.056-15.205,6.092-30.515,9.129-45.839c2.099-15.585,4.191-31.22,6.268-46.91c1.182-16.128,2.355-32.29,3.515-48.512
				c0.261-16.657,0.511-33.355,0.756-50.086c-0.659-17.087-1.324-34.208-1.998-51.355c-1.572-17.558-3.152-35.148-4.735-52.753
				c-2.473-17.943-4.949-35.901-7.436-53.882c-3.407-18.548-6.823-37.115-10.242-55.68
				C3319.982,1135.936,3177.676,536.175,3049.969,0H3051.277z"/>
		</defs>
		<clipPath id="SVGID_00000080169727889210440370000012066129805412885427_">
			<use xlink:href="#SVGID_1_"  style="overflow:visible;"/>
		</clipPath>
		
			<linearGradient id="SVGID_00000021121855392292323770000005041966210131764358_" gradientUnits="userSpaceOnUse" x1="2094.1377" y1="1458" x2="5000.022" y2="1458">
			<stop  offset="0" style="stop-color:#FF3399"/>
			<stop  offset="0.32" style="stop-color:#FFFF66"/>
			<stop  offset="0.68" style="stop-color:#00CCFF"/>
			<stop  offset="1" style="stop-color:#CC33FF"/>
		</linearGradient>
		
			<rect x="2040.028" style="clip-path:url(#SVGID_00000080169727889210440370000012066129805412885427_);fill:url(#SVGID_00000021121855392292323770000005041966210131764358_);" width="2959.972" height="2916"/>
	</g>
</g>
</svg>
